<svg version="1.1" id="Layer_1" xmlns="http://www.w3.org/2000/svg" x="0" y="0" viewBox="0 0 228.8 264.1" style="enable-background:new 0 0 228.8 264.1" xml:space="preserve"><style>.st1{fill:#fff}</style><path style="fill:#FF5722" d="M228.8 198.1V66L114.5 0 .1 66v132.1l114.4 66z"/><path class="st1" d="m160.1 159.2-46.3-26.7c-.2-.1-.4-.4-.4-.7V78.4c0-.3.1-.5.4-.7L160.1 51c.2-.1.5-.1.8 0l46.2 26.8c.2.1.4.4.4.7v53.4c0 .3-.1.5-.4.7l-46.3 26.7c-.1.1-.2.1-.4.1-.1-.1-.2-.1-.3-.2zm45.8-80.3-45.5-26.3-45.5 26.3v52.5l45.5 26.3 45.5-26.3V78.9z"/><path class="st1" d="M160.4 105.9c.1 0 .3 0 .4-.1l46.3-26.7c.4-.2.5-.7.3-1-.2-.4-.7-.5-1-.3l-46.3 26.7c-.4.2-.5.7-.3 1 .1.2.4.4.6.4z"/><path class="st1" d="M160.4 105.9c.3 0 .5-.1.7-.4.2-.4.1-.8-.3-1l-46.3-26.7c-.4-.2-.8-.1-1 .3s-.1.8.3 1l46.3 26.7c.1 0 .2.1.3.1z"/><path class="st1" d="M160.4 159.3c.4 0 .8-.3.8-.8v-53.4c0-.4-.3-.8-.8-.8-.4 0-.8.3-.8.8v53.4c.1.5.4.8.8.8z"/><path class="st1" d="M206.7 132.1c.1 0 .2 0 .2-.1.1-.1 0-.3-.1-.3L160.5 105c-.1-.1-.3 0-.3.1-.1.1 0 .3.1.3l46.3 26.7h.1zM206.7 130.6c.1 0 .2 0 .2-.1.1-.1 0-.3-.1-.3l-45-26c-.1-.1-.3 0-.3.1-.1.1 0 .3.1.3l45 26h.1zM206.7 129c.1 0 .2 0 .2-.1.1-.1 0-.3-.1-.3l-43.6-25.2c-.1-.1-.3 0-.3.1-.1.1 0 .3.1.3l43.6 25.2h.1zM206.7 127.5c.1 0 .2 0 .2-.1.1-.1 0-.3-.1-.3l-42.3-24.4c-.1-.1-.3 0-.3.1-.1.1 0 .3.1.3l42.3 24.4h.1zM206.7 126c.1 0 .2 0 .2-.1.1-.1 0-.3-.1-.3l-41-23.7c-.1-.1-.3 0-.3.1-.1.1 0 .3.1.3l41 23.7h.1zM206.7 124.5c.1 0 .2 0 .2-.1.1-.1 0-.3-.1-.3l-39.7-23c-.1-.1-.3 0-.3.1-.1.1 0 .3.1.3l39.7 22.9c0 .1.1.1.1.1zM206.7 123c.1 0 .2 0 .2-.1.1-.1 0-.3-.1-.3l-38.4-22.2c-.1-.1-.3 0-.3.1-.1.1 0 .3.1.3l38.4 22.2h.1zM206.7 121.4c.1 0 .2 0 .2-.1.1-.1 0-.3-.1-.3l-37.1-21.4c-.1-.1-.3 0-.3.1-.1.1 0 .3.1.3l37.1 21.4h.1zM206.7 119.9c.1 0 .2 0 .2-.1.1-.1 0-.3-.1-.3L171 98.8c-.1-.1-.3 0-.3.1-.1.1 0 .3.1.3l35.8 20.7h.1zM206.7 118.4c.1 0 .2 0 .2-.1.1-.1 0-.3-.1-.3l-34.4-19.9c-.1-.1-.3 0-.3.1-.1.1 0 .3.1.3l34.4 19.9h.1zM206.7 116.9c.1 0 .2 0 .2-.1.1-.1 0-.3-.1-.3l-33.1-19.1c-.1-.1-.3 0-.3.1-.1.1 0 .3.1.3l33.1 19.1h.1zM206.7 115.4c.1 0 .2 0 .2-.1.1-.1 0-.3-.1-.3L175 96.6c-.1-.1-.3 0-.3.1-.1.1 0 .3.1.3l31.8 18.4h.1zM206.7 113.8c.1 0 .2 0 .2-.1.1-.1 0-.3-.1-.3l-30.5-17.6c-.1-.1-.3 0-.3.1-.1.1 0 .3.1.3l30.5 17.6h.1zM206.7 112.3c.1 0 .2 0 .2-.1.1-.1 0-.3-.1-.3l-29.2-16.8c-.1-.1-.3 0-.3.1-.1.1 0 .3.1.3l29.2 16.8h.1zM206.7 110.8c.1 0 .2 0 .2-.1.1-.1 0-.3-.1-.3l-27.8-16c-.1-.1-.3 0-.3.1-.1.1 0 .3.1.3l27.8 16h.1zM206.7 109.3c.1 0 .2 0 .2-.1.1-.1 0-.3-.1-.3l-26.5-15.3c-.1-.1-.3 0-.3.1-.1.1 0 .3.1.3l26.5 15.3h.1zM206.7 107.8c.1 0 .2 0 .2-.1.1-.1 0-.3-.1-.3l-25.2-14.7c-.1-.1-.3 0-.3.1-.1.1 0 .3.1.3l25.2 14.6c0 .1.1.1.1.1zM206.8 106.3c.1 0 .2 0 .2-.1.1-.1 0-.3-.1-.3l-24-13.9c-.1-.1-.3 0-.3.1s0 .3.1.3l24 13.9h.1zM206.8 104.8c.1 0 .2 0 .2-.1.1-.1 0-.3-.1-.3l-22.7-13.1c-.1-.1-.3 0-.3.1-.1.1 0 .3.1.3l22.7 13.1h.1zM206.7 103.2c.1 0 .2 0 .2-.1.1-.1 0-.3-.1-.3l-21.2-12.3c-.1-.1-.3 0-.3.1-.1.1 0 .3.1.3l21.2 12.3h.1zM206.8 101.8c.1 0 .2 0 .2-.1.1-.1 0-.3-.1-.3l-20.2-11.7c-.1-.1-.3 0-.3.1-.1.1 0 .3.1.3l20.2 11.7h.1zM206.7 100.2c.1 0 .2 0 .2-.1.1-.1 0-.3-.1-.3l-18.5-10.7c-.1-.1-.3 0-.3.1-.1.1 0 .3.1.3l18.5 10.7h.1zM206.7 98.7c.1 0 .2 0 .2-.1.1-.1 0-.3-.1-.3l-17.3-10c-.1-.1-.3 0-.3.1-.1.1 0 .3.1.3l17.3 10c0-.1.1 0 .1 0zM206.7 97.1c.1 0 .2 0 .2-.1.1-.1 0-.3-.1-.3l-16-9.2c-.1-.1-.3 0-.3.1-.1.1 0 .3.1.3l16 9.2h.1zM206.7 95.6c.1 0 .2 0 .2-.1.1-.1 0-.3-.1-.3l-14.7-8.5c-.1-.1-.3 0-.3.1-.1.1 0 .3.1.3l14.7 8.5h.1zM206.6 94c.1 0 .2 0 .2-.1.1-.1 0-.3-.1-.3l-13.3-7.7c-.1-.1-.3 0-.3.1-.1.1 0 .3.1.3l13.3 7.7h.1zM206.7 92.6c.1 0 .2 0 .2-.1.1-.1 0-.3-.1-.3l-12.1-7c-.1-.1-.3 0-.3.1-.1.1 0 .3.1.3l12.1 7h.1zM206.7 91.1c.1 0 .2 0 .2-.1.1-.1 0-.3-.1-.3l-10.7-6.3c-.1-.1-.3 0-.3.1-.1.1 0 .3.1.3l10.7 6.2s0 .1.1.1zM206.7 89.5c.1 0 .2 0 .2-.1.1-.1 0-.3-.1-.3l-9.5-5.5c-.1-.1-.3 0-.3.1-.1.1 0 .3.1.3l9.5 5.5h.1zM206.7 88c.1 0 .2 0 .2-.1.1-.1 0-.3-.1-.3l-8.1-4.7c-.1-.1-.3 0-.3.1-.1.1 0 .3.1.3l8.1 4.7h.1zM206.9 86.6c.1 0 .2 0 .2-.1.1-.1 0-.3-.1-.3l-7-4c-.1-.1-.3 0-.3.1-.1.1 0 .3.1.3l7 4h.1zM206.6 84.9c.1 0 .2 0 .2-.1.1-.1 0-.3-.1-.3l-5.5-3.2c-.1-.1-.3 0-.3.1-.1.1 0 .3.1.3l5.5 3.2h.1zM206.5 83.4c.1 0 .2 0 .2-.1.1-.1 0-.3-.1-.3l-3.9-2.2c-.1-.1-.3 0-.3.1-.1.1 0 .3.1.3l3.9 2.2c0-.1.1 0 .1 0zM206.8 82c.1 0 .2 0 .2-.1.1-.1 0-.3-.1-.3l-3-1.7c-.1-.1-.3 0-.3.1-.1.1 0 .3.1.3l3 1.7h.1zM205.4 132.8c.1 0 .2 0 .2-.1.1-.1 0-.3-.1-.3l-45-26c-.1-.1-.3 0-.3.1-.1.1 0 .3.1.3l45 26h.1zM204.1 133.6c.1 0 .2 0 .2-.1.1-.1 0-.3-.1-.3L160.6 108c-.1-.1-.3 0-.3.1-.1.1 0 .3.1.3l43.6 25.2h.1zM202.8 134.4c.1 0 .2 0 .2-.1.1-.1 0-.3-.1-.3l-42.3-24.4c-.1-.1-.3 0-.3.1-.1.1 0 .3.1.3l42.3 24.4h.1zM201.4 135.1c.1 0 .2 0 .2-.1.1-.1 0-.3-.1-.3l-41-23.7c-.1-.1-.3 0-.3.1-.1.1 0 .3.1.3l41 23.7h.1zM200.1 135.9c.1 0 .2 0 .2-.1.1-.1 0-.3-.1-.3l-39.7-22.9c-.1-.1-.3 0-.3.1-.1.1 0 .3.1.3l39.7 22.9h.1zM198.8 136.6c.1 0 .2 0 .2-.1.1-.1 0-.3-.1-.3L160.5 114c-.1-.1-.3 0-.3.1-.1.1 0 .3.1.3l38.5 22.2zM197.5 137.4c.1 0 .2 0 .2-.1.1-.1 0-.3-.1-.3l-37.1-21.4c-.1-.1-.3 0-.3.1-.1.1 0 .3.1.3l37.1 21.4h.1zM196.2 138.2c.1 0 .2 0 .2-.1.1-.1 0-.3-.1-.3l-35.8-20.7c-.1-.1-.3 0-.3.1-.1.1 0 .3.1.3l35.8 20.7c0-.1 0 0 .1 0zM194.9 138.9c.1 0 .2 0 .2-.1.1-.1 0-.3-.1-.3l-34.4-19.9c-.1-.1-.3 0-.3.1-.1.1 0 .3.1.3l34.5 19.9c-.1 0-.1 0 0 0zM193.6 139.7c.1 0 .2 0 .2-.1.1-.1 0-.3-.1-.3l-33.1-19.1c-.1-.1-.3 0-.3.1-.1.1 0 .3.1.3l33.1 19.1h.1zM192.2 140.4c.1 0 .2 0 .2-.1.1-.1 0-.3-.1-.3l-31.8-18.4c-.1-.1-.3 0-.3.1-.1.1 0 .3.1.3l31.8 18.4h.1zM190.9 141.2c.1 0 .2 0 .2-.1.1-.1 0-.3-.1-.3l-30.5-17.6c-.1-.1-.3 0-.3.1-.1.1 0 .3.1.3l30.5 17.6h.1zM189.6 142c.1 0 .2 0 .2-.1.1-.1 0-.3-.1-.3l-29.2-16.8c-.1-.1-.3 0-.3.1-.1.1 0 .3.1.3l29.2 16.8c0-.1.1 0 .1 0zM188.3 142.7c.1 0 .2 0 .2-.1.1-.1 0-.3-.1-.3l-27.8-16c-.1-.1-.3 0-.3.1-.1.1 0 .3.1.3l27.8 16h.1zM187 143.5c.1 0 .2 0 .2-.1.1-.1 0-.3-.1-.3l-26.5-15.4c-.1-.1-.3 0-.3.1-.1.1 0 .3.1.3l26.6 15.4c-.1 0-.1 0 0 0zM185.7 144.2c.1 0 .2 0 .2-.1.1-.1 0-.3-.1-.3l-25.2-14.6c-.1-.1-.3 0-.3.1-.1.1 0 .3.1.3l25.2 14.6h.1zM184.5 145.1c.1 0 .2 0 .2-.1.1-.1 0-.3-.1-.3l-24-13.9c-.1-.1-.3 0-.3.1-.1.1 0 .3.1.3l24 13.9h.1zM183.1 145.8c.1 0 .2 0 .2-.1.1-.1 0-.3-.1-.3l-22.7-13.1c-.1-.1-.3 0-.3.1-.1.1 0 .3.1.3l22.7 13.1h.1zM181.7 146.5c.1 0 .2 0 .2-.1.1-.1 0-.3-.1-.3l-21.2-12.3c-.1-.1-.3 0-.3.1-.1.1 0 .3.1.3l21.2 12.3h.1zM180.5 147.4c.1 0 .2 0 .2-.1.1-.1 0-.3-.1-.3l-20.2-11.7c-.1-.1-.3 0-.3.1-.1.1 0 .3.1.3l20.2 11.7c0-.1.1 0 .1 0zM179.1 148c.1 0 .2 0 .2-.1.1-.1 0-.3-.1-.3l-18.5-10.7c-.1-.1-.3 0-.3.1-.1.1 0 .3.1.3L179 148h.1zM177.8 148.8c.1 0 .2 0 .2-.1.1-.1 0-.3-.1-.3l-17.3-10c-.1-.1-.3 0-.3.1-.1.1 0 .3.1.3l17.3 10h.1zM176.4 149.5c.1 0 .2 0 .2-.1.1-.1 0-.3-.1-.3l-16-9.2c-.1-.1-.3 0-.3.1-.1.1 0 .3.1.3l16 9.2h.1zM175.1 150.3c.1 0 .2 0 .2-.1.1-.1 0-.3-.1-.3l-14.7-8.5c-.1-.1-.3 0-.3.1-.1.1 0 .3.1.3l14.7 8.5h.1zM173.7 151c.1 0 .2 0 .2-.1.1-.1 0-.3-.1-.3l-13.3-7.7c-.1-.1-.3 0-.3.1-.1.1 0 .3.1.3l13.3 7.7h.1zM172.5 151.8c.1 0 .2 0 .2-.1.1-.1 0-.3-.1-.3l-12.1-7c-.1-.1-.3 0-.3.1-.1.1 0 .3.1.3l12.1 7h.1zM171.2 152.6c.1 0 .2 0 .2-.1.1-.1 0-.3-.1-.3l-10.7-6.2c-.1-.1-.3 0-.3.1-.1.1 0 .3.1.3l10.7 6.2h.1zM169.9 153.3c.1 0 .2 0 .2-.1.1-.1 0-.3-.1-.3l-9.5-5.5c-.1-.1-.3 0-.3.1s0 .3.1.3l9.5 5.5h.1zM168.5 154.1c.1 0 .2 0 .2-.1.1-.1 0-.3-.1-.3l-8.1-4.7c-.1-.1-.3 0-.3.1-.1.1 0 .3.1.3l8.1 4.7h.1zM167.4 155c.1 0 .2 0 .2-.1.1-.1 0-.3-.1-.3l-7-4c-.1-.1-.3 0-.3.1-.1.1 0 .3.1.3l7 4h.1zM165.8 155.6c.1 0 .2 0 .2-.1.1-.1 0-.3-.1-.3l-5.5-3.1c-.1-.1-.3 0-.3.1-.1.1 0 .3.1.3l5.5 3.1h.1zM164.4 156.3c.1 0 .2 0 .2-.1.1-.1 0-.3-.1-.3l-3.9-2.2c-.1-.1-.3 0-.3.1-.1.1 0 .3.1.3l3.9 2.2h.1zM163.4 157.2c.1 0 .2 0 .2-.1.1-.1 0-.3-.1-.3l-3-1.7c-.1-.1-.3 0-.3.1-.1.1 0 .3.1.3l3 1.7h.1z"/><g><path class="st1" d="m67.5 159.2-46.3-26.7c-.2-.1-.4-.4-.4-.7V78.4c0-.3.1-.5.4-.7L67.5 51c.2-.1.5-.1.8 0l46.3 26.7c.2.1.4.4.4.7v53.4c0 .3-.1.5-.4.7l-46.3 26.7c-.1.1-.2.1-.4.1-.1 0-.2 0-.4-.1zm45.9-80.3L67.9 52.6 22.4 78.9v52.5l45.5 26.3 45.5-26.3V78.9z"/><path class="st1" d="M67.9 105.9c.1 0 .3 0 .4-.1l46.3-26.7c.4-.2.5-.7.3-1-.2-.4-.7-.5-1-.3l-46.3 26.7c-.4.2-.5.7-.3 1 .1.2.4.4.6.4z"/><path class="st1" d="M67.9 105.9c.3 0 .5-.1.7-.4.2-.4.1-.8-.3-1L22 77.8c-.4-.2-.8-.1-1 .3s-.1.8.3 1l46.3 26.7c.1 0 .2.1.3.1z"/><path class="st1" d="M67.9 159.3c.4 0 .8-.3.8-.8v-53.4c0-.4-.3-.8-.8-.8-.4 0-.8.3-.8.8v53.4c.1.5.4.8.8.8z"/><path class="st1" d="M114.2 132.1c.1 0 .2 0 .2-.1.1-.1 0-.3-.1-.3L68 105c-.1-.1-.3 0-.3.1-.1.1 0 .3.1.3l46.3 26.7h.1zM114.2 130.6c.1 0 .2 0 .2-.1.1-.1 0-.3-.1-.3l-45-26c-.1-.1-.3 0-.3.1-.1.1 0 .3.1.3l45 26h.1zM114.2 129c.1 0 .2 0 .2-.1.1-.1 0-.3-.1-.3l-43.6-25.2c-.1-.1-.3 0-.3.1-.1.1 0 .3.1.3l43.6 25.2h.1zM114.2 127.5c.1 0 .2 0 .2-.1.1-.1 0-.3-.1-.3L72 102.7c-.1-.1-.3 0-.3.1-.1.1 0 .3.1.3l42.3 24.4h.1zM114.2 126c.1 0 .2 0 .2-.1.1-.1 0-.3-.1-.3l-41-23.7c-.1-.1-.3 0-.3.1-.1.1 0 .3.1.3l41 23.7h.1zM114.2 124.5c.1 0 .2 0 .2-.1.1-.1 0-.3-.1-.3l-39.7-22.9c-.1-.1-.3 0-.3.1-.1.1 0 .3.1.3l39.7 22.9h.1zM114.2 123c.1 0 .2 0 .2-.1.1-.1 0-.3-.1-.3l-38.4-22.2c-.1-.1-.3 0-.3.1-.1.1 0 .3.1.3l38.4 22.2h.1zM114.2 121.4c.1 0 .2 0 .2-.1.1-.1 0-.3-.1-.3L77.2 99.6c-.1-.1-.3 0-.3.1-.1.1 0 .3.1.3l37.1 21.4h.1zM114.2 119.9c.1 0 .2 0 .2-.1.1-.1 0-.3-.1-.3L78.5 98.8c-.1-.1-.3 0-.3.1-.1.1 0 .3.1.3l35.8 20.7h.1zM114.2 118.4c.1 0 .2 0 .2-.1.1-.1 0-.3-.1-.3L79.9 98.1c-.1-.1-.3 0-.3.1-.1.1 0 .3.1.3l34.4 19.9h.1zM114.2 116.9c.1 0 .2 0 .2-.1.1-.1 0-.3-.1-.3L81.2 97.4c-.1-.1-.3 0-.3.1-.1.1 0 .3.1.3l33.1 19.1h.1zM114.2 115.4c.1 0 .2 0 .2-.1.1-.1 0-.3-.1-.3L82.5 96.6c-.1-.1-.3 0-.3.1-.1.1 0 .3.1.3l31.8 18.4h.1zM114.2 113.8c.1 0 .2 0 .2-.1.1-.1 0-.3-.1-.3L83.8 95.8c-.1-.1-.3 0-.3.1-.1.1 0 .3.1.3l30.5 17.6h.1zM114.2 112.3c.1 0 .2 0 .2-.1.1-.1 0-.3-.1-.3L85.1 95c-.1-.1-.3 0-.3.1-.1.1 0 .3.1.3l29.2 16.8c0 .1 0 .1.1.1zM114.2 110.8c.1 0 .2 0 .2-.1.1-.1 0-.3-.1-.3l-27.8-16c-.1-.1-.3 0-.3.1-.1.1 0 .3.1.3l27.8 16h.1zM114.2 109.3c.1 0 .2 0 .2-.1.1-.1 0-.3-.1-.3L87.8 93.6c-.1-.1-.3 0-.3.1-.1.1 0 .3.1.3l26.5 15.3h.1zM114.2 107.8c.1 0 .2 0 .2-.1.1-.1 0-.3-.1-.3L89.1 92.7c-.1-.1-.3 0-.3.1-.1.1 0 .3.1.3l25.2 14.6c0 .1 0 .1.1.1zM114.3 106.3c.1 0 .2 0 .2-.1.1-.1 0-.3-.1-.3L90.4 92c-.1-.1-.3 0-.3.1-.1.1 0 .3.1.3l24 13.9h.1zM114.3 104.8c.1 0 .2 0 .2-.1.1-.1 0-.3-.1-.3L91.7 91.3c-.1-.1-.3 0-.3.1-.1.1 0 .3.1.3l22.7 13.1h.1zM114.2 103.2c.1 0 .2 0 .2-.1.1-.1 0-.3-.1-.3L93.1 90.5c-.1-.1-.3 0-.3.1-.1.1 0 .3.1.3l21.2 12.3h.1zM114.3 101.8c.1 0 .2 0 .2-.1.1-.1 0-.3-.1-.3L94.2 89.7c-.1-.1-.3 0-.3.1-.1.1 0 .3.1.3l20.2 11.7h.1zM114.2 100.2c.1 0 .2 0 .2-.1.1-.1 0-.3-.1-.3L95.8 89.1c-.1-.1-.3 0-.3.1-.1.1 0 .3.1.3l18.5 10.7h.1zM114.2 98.7c.1 0 .2 0 .2-.1.1-.1 0-.3-.1-.3L97 88.3c-.1-.1-.3 0-.3.1-.1.1 0 .3.1.3l17.3 10c0-.1 0 0 .1 0zM114.2 97.1c.1 0 .2 0 .2-.1.1-.1 0-.3-.1-.3l-16-9.2c-.1-.1-.3 0-.3.1-.1.1 0 .3.1.3l16 9.2h.1zM114.2 95.6c.1 0 .2 0 .2-.1.1-.1 0-.3-.1-.3l-14.7-8.5c-.1-.1-.3 0-.3.1-.1.1 0 .3.1.3l14.7 8.5h.1zM114.1 94c.1 0 .2 0 .2-.1.1-.1 0-.3-.1-.3l-13.3-7.7c-.1-.1-.3 0-.3.1s0 .3.1.3L114 94h.1zM114.2 92.6c.1 0 .2 0 .2-.1.1-.1 0-.3-.1-.3l-12.1-7c-.1-.1-.3 0-.3.1-.1.1 0 .3.1.3l12.1 7h.1zM114.2 91.1c.1 0 .2 0 .2-.1.1-.1 0-.3-.1-.3l-10.7-6.2c-.1-.1-.3 0-.3.1-.1.1 0 .3.1.3l10.7 6.2c0-.1 0 0 .1 0zM114.2 89.5c.1 0 .2 0 .2-.1.1-.1 0-.3-.1-.3l-9.5-5.5c-.1-.1-.3 0-.3.1-.1.1 0 .3.1.3l9.5 5.5h.1zM114.2 88c.1 0 .2 0 .2-.1.1-.1 0-.3-.1-.3l-8.1-4.7c-.1-.1-.3 0-.3.1-.1.1 0 .3.1.3l8.1 4.7h.1zM114.4 86.6c.1 0 .2 0 .2-.1.1-.1 0-.3-.1-.3l-7-4c-.1-.1-.3 0-.3.1-.1.1 0 .3.1.3l7 4h.1zM114.1 84.9c.1 0 .2 0 .2-.1.1-.1 0-.3-.1-.3l-5.5-3.2c-.1-.1-.3 0-.3.1-.1.1 0 .3.1.3l5.5 3.2h.1zM114 83.4c.1 0 .2 0 .2-.1.1-.1 0-.3-.1-.3l-3.9-2.2c-.1-.1-.3 0-.3.1-.1.1 0 .3.1.3l3.9 2.2c0-.1.1 0 .1 0zM114.3 82c.1 0 .2 0 .2-.1.1-.1 0-.3-.1-.3l-3-1.7c-.1-.1-.3 0-.3.1-.1.1 0 .3.1.3l3 1.7h.1zM112.9 132.8c.1 0 .2 0 .2-.1.1-.1 0-.3-.1-.3l-45-26c-.1-.1-.3 0-.3.1-.1.1 0 .3.1.3l45 26h.1zM111.6 133.6c.1 0 .2 0 .2-.1.1-.1 0-.3-.1-.3L68.1 108c-.1-.1-.3 0-.3.1-.1.1 0 .3.1.3l43.6 25.2h.1zM110.2 134.4c.1 0 .2 0 .2-.1.1-.1 0-.3-.1-.3L68 109.6c-.1-.1-.3 0-.3.1-.1.1 0 .3.1.3l42.3 24.4h.1zM108.9 135.1c.1 0 .2 0 .2-.1.1-.1 0-.3-.1-.3L68 111c-.1-.1-.3 0-.3.1-.1.1 0 .3.1.3l41 23.7h.1zM107.6 135.9c.1 0 .2 0 .2-.1.1-.1 0-.3-.1-.3L68 112.6c-.1-.1-.3 0-.3.1-.1.1 0 .3.1.3l39.7 22.9h.1zM106.3 136.6c.1 0 .2 0 .2-.1.1-.1 0-.3-.1-.3L68 114c-.1-.1-.3 0-.3.1-.1.1 0 .3.1.3l38.4 22.2h.1zM105 137.4c.1 0 .2 0 .2-.1.1-.1 0-.3-.1-.3L68 115.6c-.1-.1-.3 0-.3.1-.1.1 0 .3.1.3l37.1 21.4h.1zM103.7 138.2c.1 0 .2 0 .2-.1.1-.1 0-.3-.1-.3L68 117.1c-.1-.1-.3 0-.3.1-.1.1 0 .3.1.3l35.8 20.7c0-.1 0 0 .1 0zM102.3 138.9c.1 0 .2 0 .2-.1.1-.1 0-.3-.1-.3L68 118.6c-.1-.1-.3 0-.3.1-.1.1 0 .3.1.3l34.4 19.9h.1zM101 139.7c.1 0 .2 0 .2-.1.1-.1 0-.3-.1-.3L68 120.2c-.1-.1-.3 0-.3.1-.1.1 0 .3.1.3l33.1 19.1h.1zM99.7 140.4c.1 0 .2 0 .2-.1.1-.1 0-.3-.1-.3L68 121.6c-.1-.1-.3 0-.3.1-.1.1 0 .3.1.3l31.8 18.4h.1zM98.4 141.2c.1 0 .2 0 .2-.1.1-.1 0-.3-.1-.3l-30.4-17.7c-.1-.1-.3 0-.3.1-.1.1 0 .3.1.3l30.5 17.7c-.1 0 0 0 0 0zM97.1 142c.1 0 .2 0 .2-.1.1-.1 0-.3-.1-.3L68 124.8c-.1-.1-.3 0-.3.1-.1.1 0 .3.1.3L97 142c0-.1 0 0 .1 0zM95.8 142.7c.1 0 .2 0 .2-.1.1-.1 0-.3-.1-.3l-27.8-16c-.1-.1-.3 0-.3.1-.1.1 0 .3.1.3l27.8 16h.1zM94.4 143.5c.1 0 .2 0 .2-.1.1-.1 0-.3-.1-.3l-26.4-15.4c-.1-.1-.3 0-.3.1-.1.1 0 .3.1.3l26.5 15.4zM93.1 144.2c.1 0 .2 0 .2-.1.1-.1 0-.3-.1-.3L68 129.2c-.1-.1-.3 0-.3.1-.1.1 0 .3.1.3L93 144.2h.1zM91.9 145.1c.1 0 .2 0 .2-.1.1-.1 0-.3-.1-.3l-24-13.9c-.1-.1-.3 0-.3.1-.1.1 0 .3.1.3l24 13.9h.1zM90.6 145.8c.1 0 .2 0 .2-.1.1-.1 0-.3-.1-.3L68 132.3c-.1-.1-.3 0-.3.1-.1.1 0 .3.1.3l22.7 13.1h.1zM89.2 146.5c.1 0 .2 0 .2-.1.1-.1 0-.3-.1-.3l-21.2-12.3c-.1-.1-.3 0-.3.1-.1.1 0 .3.1.3l21.3 12.3c-.1 0-.1 0 0 0zM88 147.4c.1 0 .2 0 .2-.1.1-.1 0-.3-.1-.3l-20.2-11.7c-.1-.1-.3 0-.3.1-.1.1 0 .3.1.3L88 147.4c-.1-.1 0 0 0 0zM86.6 148c.1 0 .2 0 .2-.1.1-.1 0-.3-.1-.3l-18.5-10.7c-.1-.1-.3 0-.3.1-.1.1 0 .3.1.3L86.5 148h.1zM85.2 148.8c.1 0 .2 0 .2-.1.1-.1 0-.3-.1-.3l-17.3-10c-.1-.1-.3 0-.3.1-.1.1 0 .3.1.3l17.3 10h.1zM83.9 149.5c.1 0 .2 0 .2-.1.1-.1 0-.3-.1-.3l-16-9.2c-.1-.1-.3 0-.3.1-.1.1 0 .3.1.3l16 9.2h.1zM82.6 150.3c.1 0 .2 0 .2-.1.1-.1 0-.3-.1-.3L68 141.4c-.1-.1-.3 0-.3.1-.1.1 0 .3.1.3l14.7 8.5h.1zM81.2 151c.1 0 .2 0 .2-.1.1-.1 0-.3-.1-.3L68 142.9c-.1-.1-.3 0-.3.1-.1.1 0 .3.1.3l13.3 7.7h.1zM80 151.8c.1 0 .2 0 .2-.1.1-.1 0-.3-.1-.3l-12.1-7c-.1-.1-.3 0-.3.1-.1.1 0 .3.1.3l12.1 7h.1zM78.7 152.6c.1 0 .2 0 .2-.1.1-.1 0-.3-.1-.3L68.1 146c-.1-.1-.3 0-.3.1-.1.1 0 .3.1.3l10.7 6.2h.1zM77.3 153.3c.1 0 .2 0 .2-.1.1-.1 0-.3-.1-.3l-9.5-5.5c-.1-.1-.3 0-.3.1-.1.1 0 .3.1.3l9.5 5.5h.1zM76 154.1c.1 0 .2 0 .2-.1.1-.1 0-.3-.1-.3L68 149c-.1-.1-.3 0-.3.1-.1.1 0 .3.1.3l8.1 4.7h.1zM74.9 155c.1 0 .2 0 .2-.1.1-.1 0-.3-.1-.3l-7-4c-.1-.1-.3 0-.3.1-.1.1 0 .3.1.3l7 4h.1zM73.3 155.6c.1 0 .2 0 .2-.1.1-.1 0-.3-.1-.3l-5.5-3.1c-.1-.1-.3 0-.3.1-.1.1 0 .3.1.3l5.5 3.1h.1zM71.9 156.3c.1 0 .2 0 .2-.1.1-.1 0-.3-.1-.3l-3.9-2.2c-.1-.1-.3 0-.3.1-.1.1 0 .3.1.3l3.9 2.2h.1zM70.9 157.2c.1 0 .2 0 .2-.1.1-.1 0-.3-.1-.3l-3-1.7c-.1-.1-.3 0-.3.1-.1.1 0 .3.1.3l3 1.7h.1z"/></g><g><path class="st1" d="m113.8 239.3-46.3-26.7c-.2-.1-.4-.4-.4-.7v-53.4c0-.3.1-.5.4-.7l46.3-26.7c.2-.1.5-.1.8 0l46.3 26.7c.2.1.4.4.4.7v53.4c0 .3-.1.5-.4.7l-46.3 26.7c-.1.1-.2.1-.4.1s-.3 0-.4-.1zm45.9-80.3-45.5-26.3L68.7 159v52.5l45.5 26.3 45.5-26.3V159z"/><path class="st1" d="M114.2 186c.1 0 .3 0 .4-.1l46.3-26.7c.4-.2.5-.7.3-1-.2-.4-.7-.5-1-.3l-46.3 26.7c-.4.2-.5.7-.3 1 .1.3.3.4.6.4z"/><path class="st1" d="M114.2 186c.3 0 .5-.1.7-.4.2-.4.1-.8-.3-1l-46.3-26.7c-.4-.2-.8-.1-1 .3-.2.4-.1.8.3 1l46.3 26.7c0 .1.2.1.3.1z"/><path class="st1" d="M114.2 239.4c.4 0 .8-.3.8-.8v-53.4c0-.4-.3-.8-.8-.8-.4 0-.8.3-.8.8v53.5c0 .4.4.7.8.7z"/><path class="st1" d="M160.5 212.2c.1 0 .2 0 .2-.1.1-.1 0-.3-.1-.3l-46.3-26.7c-.1-.1-.3 0-.3.1-.1.1 0 .3.1.3l46.3 26.7h.1zM160.5 210.7c.1 0 .2 0 .2-.1.1-.1 0-.3-.1-.3l-45-26c-.1-.1-.3 0-.3.1-.1.1 0 .3.1.3l45 26h.1zM160.5 209.2c.1 0 .2 0 .2-.1.1-.1 0-.3-.1-.3L117 183.6c-.1-.1-.3 0-.3.1-.1.1 0 .3.1.3l43.6 25.2h.1zM160.5 207.7c.1 0 .2 0 .2-.1.1-.1 0-.3-.1-.3l-42.3-24.6c-.1-.1-.3 0-.3.1-.1.1 0 .3.1.3l42.3 24.4c0 .1 0 .2.1.2zM160.5 206.1c.1 0 .2 0 .2-.1.1-.1 0-.3-.1-.3l-41-23.7c-.1-.1-.3 0-.3.1-.1.1 0 .3.1.3l41 23.7h.1zM160.5 204.6c.1 0 .2 0 .2-.1.1-.1 0-.3-.1-.3l-39.7-22.9c-.1-.1-.3 0-.3.1-.1.1 0 .3.1.3l39.7 22.9h.1zM160.4 203.1c.1 0 .2 0 .2-.1.1-.1 0-.3-.1-.3l-38.4-22.2c-.1-.1-.3 0-.3.1-.1.1 0 .3.1.3l38.5 22.2zM160.4 201.6c.1 0 .2 0 .2-.1.1-.1 0-.3-.1-.3l-37-21.5c-.1-.1-.3 0-.3.1-.1.1 0 .3.1.3l37.1 21.5zM160.4 200.1c.1 0 .2 0 .2-.1.1-.1 0-.3-.1-.3L124.7 179c-.1-.1-.3 0-.3.1-.1.1 0 .3.1.3l35.8 20.7c.1-.1.1 0 .1 0zM160.4 198.5c.1 0 .2 0 .2-.1.1-.1 0-.3-.1-.3l-34.4-19.9c-.1-.1-.3 0-.3.1-.1.1 0 .3.1.3l34.5 19.9zM160.4 197c.1 0 .2 0 .2-.1.1-.1 0-.3-.1-.3l-33.1-19.1c-.1-.1-.3 0-.3.1-.1.1 0 .3.1.3l33.1 19.1h.1zM160.4 195.5c.1 0 .2 0 .2-.1.1-.1 0-.3-.1-.3l-31.8-18.4c-.1-.1-.3 0-.3.1-.1.1 0 .3.1.3l31.8 18.4h.1zM160.4 194c.1 0 .2 0 .2-.1.1-.1 0-.3-.1-.3l-30.4-17.7c-.1-.1-.3 0-.3.1-.1.1 0 .3.1.3l30.5 17.7zM160.4 192.5c.1 0 .2 0 .2-.1.1-.1 0-.3-.1-.3l-29.2-16.8c-.1-.1-.3 0-.3.1-.1.1 0 .3.1.3l29.2 16.8c.1-.1.1 0 .1 0zM160.4 190.9c.1 0 .2 0 .2-.1.1-.1 0-.3-.1-.3l-27.8-16c-.1-.1-.3 0-.3.1-.1.1 0 .3.1.3l27.8 16h.1zM160.4 189.4c.1 0 .2 0 .2-.1.1-.1 0-.3-.1-.3l-26.4-15.4c-.1-.1-.3 0-.3.1-.1.1 0 .3.1.3l26.5 15.4zM160.4 187.9c.1 0 .2 0 .2-.1.1-.1 0-.3-.1-.3l-25.2-14.6c-.1-.1-.3 0-.3.1-.1.1 0 .3.1.3l25.2 14.6h.1zM160.6 186.4c.1 0 .2 0 .2-.1.1-.1 0-.3-.1-.3l-24-13.9c-.1-.1-.3 0-.3.1-.1.1 0 .3.1.3l24 13.9h.1zM160.6 184.9c.1 0 .2 0 .2-.1.1-.1 0-.3-.1-.3L138 171.4c-.1-.1-.3 0-.3.1-.1.1 0 .3.1.3l22.7 13.1h.1zM160.4 183.3c.1 0 .2 0 .2-.1.1-.1 0-.3-.1-.3l-21.2-12.3c-.1-.1-.3 0-.3.1-.1.1 0 .3.1.3l21.2 12.3h.1zM160.6 181.9c.1 0 .2 0 .2-.1.1-.1 0-.3-.1-.3l-20.2-11.7c-.1-.1-.3 0-.3.1-.1.1 0 .3.1.3l20.2 11.7h.1zM160.4 180.3c.1 0 .2 0 .2-.1.1-.1 0-.3-.1-.3L142 169.2c-.1-.1-.3 0-.3.1-.1.1 0 .3.1.3l18.5 10.7h.1zM160.4 178.8c.1 0 .2 0 .2-.1.1-.1 0-.3-.1-.3l-17.3-10c-.1-.1-.3 0-.3.1-.1.1 0 .3.1.3l17.3 10h.1zM160.4 177.3c.1 0 .2 0 .2-.1.1-.1 0-.3-.1-.3l-16-9.2c-.1-.1-.3 0-.3.1-.1.1 0 .3.1.3l16 9.2c0-.1.1 0 .1 0zM160.4 175.7c.1 0 .2 0 .2-.1.1-.1 0-.3-.1-.3l-14.7-8.5c-.1-.1-.3 0-.3.1-.1.1 0 .3.1.3l14.7 8.5h.1zM160.3 174.1c.1 0 .2 0 .2-.1.1-.1 0-.3-.1-.3l-13.3-7.7c-.1-.1-.3 0-.3.1-.1.1 0 .3.1.3l13.3 7.7h.1zM160.4 172.7c.1 0 .2 0 .2-.1.1-.1 0-.3-.1-.3l-12.1-7c-.1-.1-.3 0-.3.1-.1.1 0 .3.1.3l12.1 7h.1zM160.4 171.2c.1 0 .2 0 .2-.1.1-.1 0-.3-.1-.3l-10.7-6.2c-.1-.1-.3 0-.3.1-.1.1 0 .3.1.3l10.7 6.2h.1zM160.4 169.7c.1 0 .2 0 .2-.1.1-.1 0-.3-.1-.3l-9.4-5.6c-.1-.1-.3 0-.3.1-.1.1 0 .3.1.3l9.5 5.6c-.1-.1 0 0 0 0zM160.4 168.1c.1 0 .2 0 .2-.1.1-.1 0-.3-.1-.3l-8.1-4.7c-.1-.1-.3 0-.3.1-.1.1 0 .3.1.3l8.1 4.7h.1zM160.6 166.7c.1 0 .2 0 .2-.1.1-.1 0-.3-.1-.3l-7-4c-.1-.1-.3 0-.3.1-.1.1 0 .3.1.3l7 4h.1zM160.3 165.1c.1 0 .2 0 .2-.1.1-.1 0-.3-.1-.3l-5.5-3.2c-.1-.1-.3 0-.3.1-.1.1 0 .3.1.3l5.5 3.2c.1-.1.1 0 .1 0zM160.3 163.5c.1 0 .2 0 .2-.1.1-.1 0-.3-.1-.3l-3.9-2.2c-.1-.1-.3 0-.3.1-.1.1 0 .3.1.3l3.9 2.2h.1zM160.6 162.1c.1 0 .2 0 .2-.1.1-.1 0-.3-.1-.3l-3-1.7c-.1-.1-.3 0-.3.1-.1.1 0 .3.1.3l3 1.7h.1zM159.1 213c.1 0 .2 0 .2-.1.1-.1 0-.3-.1-.3l-45-26c-.1-.1-.3 0-.3.1-.1.1 0 .3.1.3l45 26h.1zM157.8 213.7c.1 0 .2 0 .2-.1.1-.1 0-.3-.1-.3l-43.6-25.2c-.1-.1-.3 0-.3.1-.1.1 0 .3.1.3l43.6 25.2h.1zM156.5 214.5c.1 0 .2 0 .2-.1.1-.1 0-.3-.1-.3l-42.3-24.4c-.1-.1-.3 0-.3.1-.1.1 0 .3.1.3l42.3 24.4h.1zM155.2 215.2c.1 0 .2 0 .2-.1.1-.1 0-.3-.1-.3l-41-23.7c-.1-.1-.3 0-.3.1-.1.1 0 .3.1.3l41 23.7h.1zM153.9 216c.1 0 .2 0 .2-.1.1-.1 0-.3-.1-.3l-39.7-22.9c-.1-.1-.3 0-.3.1-.1.1 0 .3.1.3l39.7 22.9h.1zM152.6 216.8c.1 0 .2 0 .2-.1.1-.1 0-.3-.1-.3l-38.4-22.2c-.1-.1-.3 0-.3.1-.1.1 0 .3.1.3l38.4 22.2h.1zM151.2 217.5c.1 0 .2 0 .2-.1.1-.1 0-.3-.1-.3l-37.1-21.4c-.1-.1-.3 0-.3.1-.1.1 0 .3.1.3l37.1 21.4h.1zM149.9 218.3c.1 0 .2 0 .2-.1.1-.1 0-.3-.1-.3l-35.8-20.7c-.1-.1-.3 0-.3.1-.1.1 0 .3.1.3l35.8 20.7h.1zM148.6 219c.1 0 .2 0 .2-.1.1-.1 0-.3-.1-.3l-34.4-19.9c-.1-.1-.3 0-.3.1-.1.1 0 .3.1.3l34.4 19.9h.1zM147.3 219.8c.1 0 .2 0 .2-.1.1-.1 0-.3-.1-.3l-33.1-19.1c-.1-.1-.3 0-.3.1-.1.1 0 .3.1.3l33.1 19.1h.1zM146 220.6c.1 0 .2 0 .2-.1.1-.1 0-.3-.1-.3l-31.8-18.5c-.1-.1-.3 0-.3.1-.1.1 0 .3.1.3l31.9 18.5c-.1-.1-.1 0 0 0zM144.7 221.3c.1 0 .2 0 .2-.1.1-.1 0-.3-.1-.3l-30.5-17.6c-.1-.1-.3 0-.3.1-.1.1 0 .3.1.3l30.5 17.6h.1zM143.3 222.1c.1 0 .2 0 .2-.1.1-.1 0-.3-.1-.3l-29.2-16.8c-.1-.1-.3 0-.3.1-.1.1 0 .3.1.3l29.2 16.8h.1zM142 222.8c.1 0 .2 0 .2-.1.1-.1 0-.3-.1-.3l-27.8-16c-.1-.1-.3 0-.3.1-.1.1 0 .3.1.3l27.8 16h.1zM140.7 223.6c.1 0 .2 0 .2-.1.1-.1 0-.3-.1-.3l-26.5-15.3c-.1-.1-.3 0-.3.1-.1.1 0 .3.1.3l26.5 15.3h.1zM139.4 224.4c.1 0 .2 0 .2-.1.1-.1 0-.3-.1-.3l-25.2-14.6c-.1-.1-.3 0-.3.1-.1.1 0 .3.1.3l25.2 14.6c0-.1 0 0 .1 0zM138.2 225.2c.1 0 .2 0 .2-.1.1-.1 0-.3-.1-.3l-24-13.9c-.1-.1-.3 0-.3.1-.1.1 0 .3.1.3l24 13.9h.1zM136.9 225.9c.1 0 .2 0 .2-.1.1-.1 0-.3-.1-.3l-22.7-13.1c-.1-.1-.3 0-.3.1s0 .3.1.3l22.7 13.1h.1zM135.4 226.6c.1 0 .2 0 .2-.1.1-.1 0-.3-.1-.3l-21.2-12.3c-.1-.1-.3 0-.3.1-.1.1 0 .3.1.3l21.2 12.3h.1zM134.3 227.5c.1 0 .2 0 .2-.1.1-.1 0-.3-.1-.3l-20.2-11.7c-.1-.1-.3 0-.3.1-.1.1 0 .3.1.3l20.2 11.7h.1zM132.8 228.1c.1 0 .2 0 .2-.1.1-.1 0-.3-.1-.3L114.4 217c-.1-.1-.3 0-.3.1-.1.1 0 .3.1.3l18.5 10.7h.1zM131.5 228.9c.1 0 .2 0 .2-.1.1-.1 0-.3-.1-.3l-17.3-10c-.1-.1-.3 0-.3.1-.1.1 0 .3.1.3l17.3 10h.1zM130.2 229.7c.1 0 .2 0 .2-.1.1-.1 0-.3-.1-.3l-16-9.2c-.1-.1-.3 0-.3.1-.1.1 0 .3.1.3l16 9.2h.1zM128.9 230.4c.1 0 .2 0 .2-.1.1-.1 0-.3-.1-.3l-14.7-8.5c-.1-.1-.3 0-.3.1-.1.1 0 .3.1.3l14.7 8.5h.1zM127.4 231.1c.1 0 .2 0 .2-.1.1-.1 0-.3-.1-.3l-13.3-7.7c-.1-.1-.3 0-.3.1-.1.1 0 .3.1.3l13.3 7.7h.1zM126.2 231.9c.1 0 .2 0 .2-.1.1-.1 0-.3-.1-.3l-12.1-7c-.1-.1-.3 0-.3.1-.1.1 0 .3.1.3l12.1 7h.1zM124.9 232.7c.1 0 .2 0 .2-.1.1-.1 0-.3-.1-.3l-10.7-6.2c-.1-.1-.3 0-.3.1-.1.1 0 .3.1.3l10.7 6.2h.1zM123.6 233.5c.1 0 .2 0 .2-.1.1-.1 0-.3-.1-.3l-9.5-5.5c-.1-.1-.3 0-.3.1-.1.1 0 .3.1.3l9.5 5.5c0-.1.1 0 .1 0zM122.3 234.2c.1 0 .2 0 .2-.1.1-.1 0-.3-.1-.3l-8.1-4.7c-.1-.1-.3 0-.3.1-.1.1 0 .3.1.3l8.1 4.7h.1zM121.2 235.1c.1 0 .2 0 .2-.1.1-.1 0-.3-.1-.3l-7-4c-.1-.1-.3 0-.3.1-.1.1 0 .3.1.3l7 4h.1zM119.6 235.7c.1 0 .2 0 .2-.1.1-.1 0-.3-.1-.3l-5.5-3.2c-.1-.1-.3 0-.3.1-.1.1 0 .3.1.3l5.5 3.2h.1zM118.2 236.4c.1 0 .2 0 .2-.1.1-.1 0-.3-.1-.3l-3.9-2.2c-.1-.1-.3 0-.3.1-.1.1 0 .3.1.3l3.9 2.2h.1zM117.2 237.3c.1 0 .2 0 .2-.1.1-.1 0-.3-.1-.3l-3-1.7c-.1-.1-.3 0-.3.1-.1.1 0 .3.1.3l3 1.7h.1z"/></g><g><path class="st1" d="m114.1 238.9-92.5-53.5c-.1 0-.1-.1-.1-.2V78.5c0-.1 0-.2.1-.2l92.5-53.6h.3l92.5 53.5c.1 0 .1.1.1.2v106.7c0 .1 0 .2-.1.2l-92.5 53.5h-.1c-.1.1-.1.1-.2.1zm92.4-160.3-92.3-53.3L22 78.6V185l92.3 53.3 92.3-53.3V78.6h-.1z"/></g><g><path class="st1" d="m114.1 231.5-86-49.8c-.1 0-.1-.1-.1-.2V82.2c0-.1 0-.2.1-.2l86-49.8h.3L200.5 82c.1 0 .1.1.1.2v99.3c0 .1 0 .2-.1.2l-86.1 49.8H114.1zm86-149.2-85.8-49.6-85.9 49.6v99l85.8 49.6 85.8-49.6.1-99z"/></g><g><path class="st1" d="m114.1 193-52.8-30.5c-.1 0-.1-.1-.1-.2v-60.9c0-.1 0-.2.1-.2l52.8-30.6h.3l52.8 30.5c.1 0 .1.1.1.2v60.9c0 .1 0 .2-.1.2l-52.8 30.5h-.1c-.1.1-.1.1-.2.1zm52.7-91.5-52.5-30.4-52.5 30.4v60.6l52.5 30.4 52.5-30.4v-60.6z"/></g><g><path class="st1" d="M114.2 249.2c.1 0 .3 0 .4-.1.4-.2.5-.7.3-1L14.5 74.3h200.6c.4 0 .8-.3.8-.8 0-.4-.3-.8-.8-.8H13.2c-.3 0-.5.1-.7.4-.1.2-.1.5 0 .8l101 174.9c.2.3.4.4.7.4z"/><path class="st1" d="M114.2 248.7c.1 0 .3-.1.3-.3V131.8c0-.1-.1-.3-.3-.3-.1 0-.3.1-.3.3v116.6c0 .2.1.3.3.3zM164.2 103.2h.1l51-29.4c.1-.1.2-.2.1-.3-.1-.1-.2-.2-.3-.1l-51 29.3c-.1.1-.2.2-.1.3 0 .2.1.2.2.2z"/><path class="st1" d="M114.2 132.1c.1 0 .2 0 .2-.1.1-.1 0-.3-.1-.3l-101-58.3c-.1-.1-.3 0-.3.1-.1.1 0 .3.1.3l101 58.3c0-.1 0 0 .1 0zM208.2 186.6h.1l2.4-1.4c.1-.1.2-.2.1-.3-.1-.1-.2-.2-.3-.1l-2.4 1.4c-.1.1-.2.2-.1.3 0 .1.1.1.2.1zM206.8 184.3h.1l3.8-2.2c.1-.1.2-.2.1-.3-.1-.1-.2-.2-.3-.1l-3.8 2.2c-.1.1-.2.2-.1.3 0 .1.1.1.2.1zM205.5 182h.1l5.1-3c.1-.1.2-.2.1-.3-.1-.1-.2-.2-.3-.1l-5.1 3c-.1.1-.2.2-.1.3 0 0 .1.1.2.1zM204.1 179.6h.1l6.5-3.7c.1-.1.2-.2.1-.3-.1-.1-.2-.2-.3-.1l-6.5 3.7c-.1.1-.2.2-.1.3s.2.1.2.1zM202.8 177.3h.1l7.8-4.5c.1-.1.2-.2.1-.3-.1-.1-.2-.2-.3-.1l-7.8 4.5c-.1.1-.2.2-.1.3 0 0 .1.1.2.1zM201.5 174.9h.1l9.1-5.3c.1-.1.2-.2.1-.3-.1-.1-.2-.2-.3-.1l-9.1 5.3c-.1.1-.2.2-.1.3 0 .1.1.1.2.1zM200.1 172.6h.1l10.5-6c.1-.1.2-.2.1-.3-.1-.1-.2-.2-.3-.1l-10.5 6.1c-.1.1-.2.2-.1.3h.2zM198.8 170.3h.1l11.8-6.8c.1-.1.2-.2.1-.3-.1-.1-.2-.2-.3-.1l-11.8 6.8c-.1.1-.2.2-.1.3 0 0 .1.1.2.1zM197.4 167.9h.1l13.2-7.6c.1-.1.2-.2.1-.3-.1-.1-.2-.2-.3-.1l-13.2 7.6c-.1.1-.2.2-.1.3s.2.1.2.1zM196.1 165.6h.1l14.5-8.4c.1-.1.2-.2.1-.3-.1-.1-.2-.2-.3-.1l-14.5 8.4c-.1.1-.2.2-.1.3 0 0 .1.1.2.1zM194.8 163.2h.1l15.8-9.1c.1-.1.2-.2.1-.3-.1-.1-.2-.2-.3-.1l-15.8 9.1c-.1.1-.2.2-.1.3 0 .1.1.1.2.1zM193.4 160.9h.1l17.2-9.9c.1-.1.2-.2.1-.3-.1-.1-.2-.2-.3-.1l-17.2 9.9c-.1.1-.2.2-.1.3 0 .1.1.1.2.1zM192.1 158.6h.1l18.5-10.7c.1-.1.2-.2.1-.3-.1-.1-.2-.2-.3-.1L192 158.2c-.1.1-.2.2-.1.3 0 0 .1.1.2.1zM190.7 156.2h.1l19.9-11.5c.1-.1.2-.2.1-.3-.1-.1-.2-.2-.3-.1l-19.9 11.4c-.1.1-.2.2-.1.3.1.2.2.2.2.2zM189.4 153.9h.1l21.2-12.2c.1-.1.2-.2.1-.3-.1-.1-.2-.2-.3-.1l-21.2 12.2c-.1.1-.2.2-.1.3 0 0 .1.1.2.1zM188.1 151.5h.1l22.5-13c.1-.1.2-.2.1-.3-.1-.1-.2-.2-.3-.1l-22.5 13c-.1.1-.2.2-.1.3 0 .1.1.1.2.1zM186.7 149.2h.1l23.9-13.8c.1-.1.2-.2.1-.3-.1-.1-.2-.2-.3-.1l-23.9 13.7c-.1.1-.2.2-.1.3 0 .1.1.2.2.2zM185.4 146.9h.1l25.2-14.6c.1-.1.2-.2.1-.3-.1-.1-.2-.2-.3-.1l-25.2 14.6c-.1.1-.2.2-.1.3 0 0 .1.1.2.1zM184 144.5h.1l26.6-15.3c.1-.1.2-.2.1-.3-.1-.1-.2-.2-.3-.1l-26.6 15.3c-.1.1-.2.2-.1.3.1.1.2.1.2.1zM182.7 142.2h.1l27.9-16.1c.1-.1.2-.2.1-.3-.1-.1-.2-.2-.3-.1l-27.9 16c-.1.1-.2.2-.1.3 0 .1.1.2.2.2zM181.4 139.8h.1l29.2-16.9c.1-.1.2-.2.1-.3-.1-.1-.2-.2-.3-.1l-29.2 16.9c-.1.1-.2.2-.1.3 0 .1.1.1.2.1zM180 137.5h.1l30.6-17.6c.1-.1.2-.2.1-.3-.1-.1-.2-.2-.3-.1l-30.6 17.6c-.1.1-.2.2-.1.3 0 0 .1.1.2.1zM178.7 135.1h.1l31.9-18.4c.1-.1.2-.2.1-.3-.1-.1-.2-.2-.3-.1l-31.9 18.4c-.1.1-.2.2-.1.3 0 .1.1.1.2.1zM177.3 132.8h.1l33.3-19.2c.1-.1.2-.2.1-.3-.1-.1-.2-.2-.3-.1l-33.3 19.2c-.1.1-.2.2-.1.3.1.1.2.1.2.1zM176 130.5h.1l34.6-20c.1-.1.2-.2.1-.3-.1-.1-.2-.2-.3-.1l-34.6 20c-.1.1-.2.2-.1.3 0 0 .1.1.2.1zM174.7 128.1h.1l35.9-20.7c.1-.1.2-.2.1-.3-.1-.1-.2-.2-.3-.1l-36 20.7c-.1.1-.2.2-.1.3.1.1.2.1.3.1zM173.3 125.8h.1l37.3-21.5c.1-.1.2-.2.1-.3-.1-.1-.2-.2-.3-.1l-37.3 21.5c-.1.1-.2.2-.1.3 0 0 .1.1.2.1zM172 123.4h.1l38.6-22.3c.1-.1.2-.2.1-.3-.1-.1-.2-.2-.3-.1L171.9 123c-.1.1-.2.2-.1.3 0 .1.1.1.2.1zM170.6 121.1h.1l40-23.1c.1-.1.2-.2.1-.3-.1-.1-.2-.2-.3-.1l-40 23.1c-.1.1-.2.2-.1.3.1.1.2.1.2.1zM169.3 118.8h.1L210.7 95c.1-.1.2-.2.1-.3-.1-.1-.2-.2-.3-.1l-41.3 23.8c-.1.1-.2.2-.1.3 0 0 .1.1.2.1zM168 116.4h.1l42.6-24.6c.1-.1.2-.2.1-.3-.1-.1-.2-.2-.3-.1L167.9 116c-.1.1-.2.2-.1.3 0 .1.1.1.2.1zM166.6 114.1h.1l44-25.4c.1-.1.2-.2.1-.3-.1-.1-.2-.2-.3-.1l-44 25.4c-.1.1-.2.2-.1.3 0 0 .1.1.2.1zM165.3 111.7h.1l45.3-26.2c.1-.1.2-.2.1-.3-.1-.1-.2-.2-.3-.1l-45.3 26.2c-.1.1-.2.2-.1.3 0 .1.1.1.2.1zM163.9 109.4h.1l46.5-26.9c.1-.1.2-.2.1-.3-.1-.1-.2-.2-.3-.1L163.8 109c-.1.1-.2.2-.1.3.1.1.2.1.2.1zM162.6 107.1h.1l48-27.7c.1-.1.2-.2.1-.3-.1-.1-.2-.2-.3-.1l-48 27.7c-.1.1-.2.2-.1.3 0 0 .1.1.2.1zM161.3 104.7h.1l49.3-28.5c.1-.1.2-.2.1-.3-.1-.1-.2-.2-.3-.1l-49.4 28.4c-.1.1-.2.2-.1.3.1.2.2.2.3.2zM159.9 102.4h.1l49.5-28.5c.1-.1.2-.2.1-.3-.1-.1-.2-.2-.3-.1L159.8 102c-.1.1-.2.2-.1.3 0 0 .1.1.2.1zM158.6 100h.1l48.1-27.8c.1-.1.2-.2.1-.3-.1-.1-.2-.2-.3-.1l-48.1 27.8c-.1.1-.2.2-.1.3 0 .1.1.1.2.1zM157.2 97.7h.1l46.8-27c.1-.1.2-.2.1-.3-.1-.1-.2-.2-.3-.1l-46.7 27c-.1.1-.2.2-.1.3 0 .1.1.1.1.1zM155.9 95.4h.1l45.4-26.2c.1-.1.2-.2.1-.3-.1-.1-.2-.2-.3-.1L155.8 95c-.1.1-.2.2-.1.3 0 0 .1.1.2.1zM154.6 93h.1l44-25.4c.1-.1.2-.2.1-.3-.1-.1-.2-.2-.3-.1l-44 25.4c-.1.1-.2.2-.1.3 0 .1.1.1.2.1zM153.2 90.7h.1L196 66.1c.1-.1.2-.2.1-.3-.1-.1-.2-.2-.3-.1l-42.7 24.5c-.1.1-.2.2-.1.3 0 .1.1.2.2.2zM151.9 88.3h.1l41.3-23.8c.1-.1.2-.2.1-.3-.1-.1-.2-.2-.3-.1l-41.3 23.8c-.1.1-.2.2-.1.3 0 .1.1.1.2.1zM150.5 86h.1l40-23.1c.1-.1.2-.2.1-.3-.1-.1-.2-.2-.3-.1l-40 23.1c-.1.1-.2.2-.1.3.1 0 .2.1.2.1zM149.2 83.7h.1l38.6-22.3c.1-.1.2-.2.1-.3-.1-.1-.2-.2-.3-.1l-38.6 22.2c-.1.1-.2.2-.1.3 0 .1.1.2.2.2zM147.9 81.3h.1l37.2-21.5c.1-.1.2-.2.1-.3-.1-.1-.2-.2-.3-.1l-37.2 21.5c-.1.1-.2.2-.1.3 0 .1.1.1.2.1zM146.5 79h.1l35.9-20.7c.1-.1.2-.2.1-.3-.1-.1-.2-.2-.3-.1l-35.9 20.7c-.1.1-.2.2-.1.3 0 0 .1.1.2.1zM145.2 76.6h.1l34.5-19.9c.1-.1.2-.2.1-.3-.1-.1-.2-.2-.3-.1l-34.5 19.9c-.1.1-.2.2-.1.3 0 .1.1.1.2.1zM143.8 74.3h.1l33.2-19.2c.1-.1.2-.2.1-.3-.1-.1-.2-.2-.3-.1l-33.2 19.1c-.1.1-.2.2-.1.3l.2.2zM142.5 71.9h.1l31.8-18.4c.1-.1.2-.2.1-.3-.1-.1-.2-.2-.3-.1l-31.8 18.4c-.1.1-.2.2-.1.3 0 .1.1.1.2.1zM141.2 69.6h.1L171.7 52c.1-.1.2-.2.1-.3-.1-.1-.2-.2-.3-.1l-30.4 17.6c-.1.1-.2.2-.1.3 0 .1.1.1.2.1zM139.8 67.3h.1L169 50.5c.1-.1.2-.2.1-.3-.1-.1-.2-.2-.3-.1l-29.1 16.8c-.1.1-.2.2-.1.3 0 0 .1.1.2.1zM138.5 64.9h.1l27.7-16c.1-.1.2-.2.1-.3-.1-.1-.2-.2-.3-.1l-27.7 16c-.1.1-.2.2-.1.3 0 .1.1.1.2.1zM137.1 62.6h.1l26.4-15.2c.1-.1.2-.2.1-.3-.1-.1-.2-.2-.3-.1L137 62.2c-.1.1-.2.2-.1.3.1 0 .2.1.2.1zM135.8 60.2h.1l25-14.4c.1-.1.2-.2.1-.3-.1-.1-.2-.2-.3-.1l-25 14.4c-.1.1-.2.2-.1.3 0 .1.1.1.2.1zM134.5 57.9h.1l23.7-13.7c.1-.1.2-.2.1-.3-.1-.1-.2-.2-.3-.1l-23.7 13.7c-.1.1-.2.2-.1.3 0 .1.1.1.2.1zM133.1 55.6h.1l22.3-12.9c.1-.1.2-.2.1-.3-.1-.1-.2-.2-.3-.1L133 55.2c-.1.1-.2.2-.1.3 0 0 .1.1.2.1zM131.8 53.2h.1l20.9-12.1c.1-.1.2-.2.1-.3-.1-.1-.2-.2-.3-.1l-20.9 12c-.1.1-.2.2-.1.3 0 .2.1.2.2.2zM130.4 50.9h.1l19.6-11.4c.1-.1.2-.2.1-.3-.1-.1-.2-.2-.3-.1l-19.5 11.3c-.1.1-.2.2-.1.3 0 .1.1.2.1.2zM129.1 48.5h.1L147.4 38c.1-.1.2-.2.1-.3-.1-.1-.2-.2-.3-.1L129 48.1c-.1.1-.2.2-.1.3 0 .1.1.1.2.1zM127.8 46.2h.1l16.9-9.7c.1-.1.2-.2.1-.3-.1-.1-.2-.2-.3-.1l-17 9.6c-.1.1-.2.2-.1.3.1.2.2.2.3.2zM126.4 43.9h.1L142 35c.1-.1.2-.2.1-.3-.1-.1-.2-.2-.3-.1l-15.5 8.9c-.1.1-.2.2-.1.3 0 0 .1.1.2.1zM125.1 41.5h.1l14.2-8.1c.1-.1.2-.2.1-.3-.1-.1-.2-.2-.3-.1L125 41.1c-.1.1-.2.2-.1.3 0 .1.1.1.2.1zM123.7 39.2h.1l12.8-7.4c.1-.1.2-.2.1-.3-.1-.1-.2-.2-.3-.1l-12.8 7.3c-.1.1-.2.2-.1.3l.2.2zM122.4 36.8h.1l11.4-6.6c.1-.1.2-.2.1-.3-.1-.1-.2-.2-.3-.1l-11.4 6.6c-.1.1-.2.2-.1.3 0 .1.1.1.2.1zM121.1 34.5h.1l10.1-5.8c.1-.1.2-.2.1-.3-.1-.1-.2-.2-.3-.1L121 34.1c-.1.1-.2.2-.1.3 0 0 .1.1.2.1zM119.7 32.2h.1l8.7-5c.1-.1.2-.2.1-.3-.1-.1-.2-.2-.3-.1l-8.7 5c-.1.1-.2.2-.1.3 0 0 .1.1.2.1zM118.4 29.8h.1l7.3-4.2c.1-.1.2-.2.1-.3-.1-.1-.2-.2-.3-.1l-7.4 4.2c-.1.1-.2.2-.1.3s.2.1.3.1zM117 27.5h.1l6-3.5c.1-.1.2-.2.1-.3-.1-.1-.2-.2-.3-.1l-6 3.5c-.1.1-.2.2-.1.3.1 0 .2.1.2.1zM115.7 25.1h.1l4.6-2.7c.1-.1.2-.2.1-.3-.1-.1-.2-.2-.3-.1l-4.6 2.7c-.1.1-.2.2-.1.3 0 .1.1.1.2.1zM114.4 22.8h.1l3.3-1.9c.1-.1.2-.2.1-.3-.1-.1-.2-.2-.3-.1l-3.3 1.9c-.1.1-.2.2-.1.3 0 0 .1.1.2.1zM113 20.5h.1l1.9-1.1c.1-.1.2-.2.1-.3-.1-.1-.2-.2-.3-.1l-1.9 1.1c-.1.1-.2.2-.1.3 0 0 .1.1.2.1z"/><g><path class="st1" d="M215.2 190.3h.1c.1-.1.2-.2.1-.3l-101-174.9c-.1-.2-.3-.2-.4 0L13 190c-.1.1 0 .3.1.3.1.1.3 0 .3-.1L114.2 15.7 215 190.2c0 .1.1.1.2.1z"/></g><g><path class="st1" d="M114.2 132.1c.1 0 .3-.1.3-.3V39c0-.1-.1-.3-.3-.3-.1 0-.3.1-.3.3v92.8c0 .1.1.3.3.3z"/></g><g><path class="st1" d="M194.6 178.4c.1 0 .2 0 .2-.1.1-.1 0-.3-.1-.3l-80.4-46.4c-.1-.1-.3 0-.3.1-.1.1 0 .3.1.3l80.4 46.4h.1z"/></g><g><path class="st1" d="M114.2 225.4c.3 0 .5-.1.7-.4.2-.4.1-.8-.3-1l-80-46.3V85.9l80-46.3c.4-.2.5-.7.3-1-.2-.4-.7-.5-1-.3L33.4 84.8c-.2.1-.4.4-.4.7v92.7c0 .3.1.5.4.7l80.4 46.5h.4z"/></g><g><path class="st1" d="M194.6 178.9c.4 0 .8-.3.8-.8V85.4c0-.4-.3-.8-.8-.8-.4 0-.8.3-.8.8v92.7c0 .5.3.8.8.8z"/></g><g><path class="st1" d="M114.2 229.4h.1l84.3-48.7c.1 0 .1-.1.1-.2V83.2c0-.1 0-.2-.1-.2l-84.3-48.7h-.3L29.8 83c-.1.1-.2.2-.1.3.1.1.2.2.3.1l84.1-48.7 84 48.6v96.9l-84 48.6L30 180.1c-.1-.1-.3 0-.3.1-.1.1 0 .3.1.3l84.3 48.7c0 .2 0 .2.1.2z"/></g><g><path class="st1" d="M114.2 189.8h.1l50-28.9c.1 0 .1-.1.1-.2V103c0-.1 0-.2-.1-.2l-50-28.9c-.1-.1-.3 0-.3.1-.1.1 0 .3.1.3l49.9 28.8v57.4l-49.9 28.8c-.1.1-.2.2-.1.3 0 .2.1.2.2.2z"/></g><g><path class="st1" d="M64.2 160.9c.1 0 .3-.1.3-.3v-57.7c0-.1-.1-.3-.3-.3-.1 0-.3.1-.3.3v57.7c0 .2.1.3.3.3z"/></g><g><path class="st1" d="M114.2 249.2c.1 0 .3 0 .4-.1l101-58.4c.2-.1.4-.4.4-.7V73.5c0-.4-.3-.8-.8-.8-.4 0-.8.3-.8.8v116.1l-100.2 57.9L14 189.6V74l100.6-58.2c.4-.2.5-.7.3-1-.2-.4-.7-.5-1-.3l-101 58.4c-.2.1-.4.4-.4.7v116.5c0 .3.1.5.4.7l101 58.4h.3z"/></g><g><path class="st1" d="M114.2 257.1c.1 0 .2 0 .2-.1.1-.1 0-.3-.1-.3L6.1 194c-.1-.1-.3 0-.3.1-.1.1 0 .3.1.3L114.1 257s0 .1.1.1z"/></g><g><path class="st1" d="M222.6 69.4c0-.1 0-.2-.1-.2L114.3 6.6h-.3L5.8 69.2c-.1.1-.2.2-.1.3.1.1.2.2.3.1L114.1 7.1l108 62.4v124.7c0 .1.1.3.3.3.1 0 .3-.1.3-.3"/></g></g><g><path class="st1" d="M8 73.5c0 2.9 2.3 5.2 5.2 5.2s5.2-2.3 5.2-5.2c0-2.9-2.3-5.2-5.2-5.2S8 70.7 8 73.5z"/></g><g><path class="st1" d="M109 15.2c0 2.9 2.3 5.2 5.2 5.2s5.2-2.3 5.2-5.2-2.3-5.2-5.2-5.2c-2.9-.1-5.2 2.3-5.2 5.2z"/></g><g><path class="st1" d="M109 132.5c0 2.9 2.3 5.2 5.2 5.2s5.2-2.3 5.2-5.2-2.3-5.2-5.2-5.2c-2.9-.1-5.2 2.3-5.2 5.2z"/></g><g><path class="st1" d="M109 184.5c0 2.9 2.3 5.2 5.2 5.2s5.2-2.3 5.2-5.2-2.3-5.2-5.2-5.2-5.2 2.3-5.2 5.2z"/></g><g><path class="st1" d="M109 248.4c0 2.9 2.3 5.2 5.2 5.2s5.2-2.3 5.2-5.2-2.3-5.2-5.2-5.2-5.2 2.4-5.2 5.2z"/></g><g><path class="st1" d="M28.6 178.2c0 2.9 2.3 5.2 5.2 5.2s5.2-2.3 5.2-5.2-2.3-5.2-5.2-5.2-5.2 2.3-5.2 5.2z"/></g><g><path class="st1" d="M10.4 190.1c0 1.6 1.3 2.8 2.8 2.8s2.8-1.3 2.8-2.8c0-1.6-1.3-2.8-2.8-2.8s-2.8 1.2-2.8 2.8z"/></g><g><path class="st1" d="M3.2 194.2c0 1.6 1.3 2.8 2.8 2.8 1.6 0 2.8-1.3 2.8-2.8 0-1.6-1.3-2.8-2.8-2.8-1.6 0-2.8 1.3-2.8 2.8z"/></g><g><path class="st1" d="M212.3 73.5c0 1.6 1.3 2.8 2.8 2.8 1.6 0 2.8-1.3 2.8-2.8 0-1.6-1.3-2.8-2.8-2.8s-2.8 1.3-2.8 2.8z"/></g><g><path class="st1" d="M219.6 194.2c0 1.6 1.3 2.8 2.8 2.8 1.6 0 2.8-1.3 2.8-2.8 0-1.6-1.3-2.8-2.8-2.8-1.6 0-2.8 1.3-2.8 2.8z"/></g><g><path class="st1" d="M212.3 190.1c0 1.6 1.3 2.8 2.8 2.8s2.8-1.3 2.8-2.8c0-1.6-1.3-2.8-2.8-2.8s-2.8 1.2-2.8 2.8z"/></g><g><path class="st1" d="M157.6 51.7c0 1.6 1.3 2.8 2.8 2.8 1.6 0 2.8-1.3 2.8-2.8 0-1.6-1.3-2.8-2.8-2.8s-2.8 1.2-2.8 2.8z"/></g><g><path class="st1" d="M111.4 39c0 1.6 1.3 2.8 2.8 2.8 1.6 0 2.8-1.3 2.8-2.8 0-1.6-1.3-2.8-2.8-2.8-1.6-.1-2.8 1.2-2.8 2.8z"/></g><g><path class="st1" d="M111.4 78.4c0 1.6 1.3 2.8 2.8 2.8 1.6 0 2.8-1.3 2.8-2.8 0-1.6-1.3-2.8-2.8-2.8-1.6 0-2.8 1.3-2.8 2.8z"/></g><g><path class="st1" d="M18.8 131.8c0 1.6 1.3 2.8 2.8 2.8 1.6 0 2.8-1.3 2.8-2.8 0-1.6-1.3-2.8-2.8-2.8s-2.8 1.2-2.8 2.8z"/></g><g><path class="st1" d="M65.1 51.7c0 1.6 1.3 2.8 2.8 2.8 1.6 0 2.8-1.3 2.8-2.8 0-1.6-1.3-2.8-2.8-2.8s-2.8 1.2-2.8 2.8z"/></g><g><path class="st1" d="M157.6 158.5c0 1.6 1.3 2.8 2.8 2.8 1.6 0 2.8-1.3 2.8-2.8 0-1.6-1.3-2.8-2.8-2.8s-2.8 1.3-2.8 2.8z"/></g><g><path class="st1" d="M65 211.1c0 1.6 1.3 2.8 2.8 2.8 1.6 0 2.8-1.3 2.8-2.8 0-1.6-1.3-2.8-2.8-2.8s-2.8 1.3-2.8 2.8z"/></g><g><path class="st1" d="M65 157.7c0 1.6 1.3 2.8 2.8 2.8 1.6 0 2.8-1.3 2.8-2.8 0-1.6-1.3-2.8-2.8-2.8-1.5 0-2.8 1.3-2.8 2.8z"/></g><g><path class="st1" d="M65 105.1c0 1.6 1.3 2.8 2.8 2.8 1.6 0 2.8-1.3 2.8-2.8 0-1.6-1.3-2.8-2.8-2.8s-2.8 1.3-2.8 2.8z"/></g><g><path class="st1" d="M101.2 132.5c0-7.2 5.8-13 13-13s13 5.8 13 13-5.8 13-13 13-13-5.9-13-13zm.5 0c0 6.9 5.6 12.5 12.5 12.5s12.5-5.6 12.5-12.5-5.6-12.5-12.5-12.5c-6.9-.1-12.5 5.6-12.5 12.5z"/></g><g><path class="st1" d="M0 194.2c0-3.3 2.7-5.9 5.9-5.9 3.3 0 5.9 2.7 5.9 5.9 0 3.3-2.7 5.9-5.9 5.9-3.2.1-5.9-2.6-5.9-5.9zm.6 0c0 3 2.4 5.4 5.4 5.4s5.4-2.4 5.4-5.4-2.4-5.4-5.4-5.4-5.4 2.4-5.4 5.4z"/></g><g><path class="st1" d="M62 51.7c0-3.3 2.7-5.9 5.9-5.9 3.3 0 5.9 2.7 5.9 5.9 0 3.3-2.7 5.9-5.9 5.9S62 54.9 62 51.7zm.5 0c0 3 2.4 5.4 5.4 5.4s5.4-2.4 5.4-5.4-2.4-5.4-5.4-5.4-5.4 2.4-5.4 5.4z"/></g><g><path class="st1" d="M216.5 194.2c0-3.3 2.7-5.9 5.9-5.9 3.3 0 5.9 2.7 5.9 5.9 0 3.3-2.7 5.9-5.9 5.9-3.3.1-5.9-2.6-5.9-5.9zm.5 0c0 3 2.4 5.4 5.4 5.4s5.4-2.4 5.4-5.4-2.4-5.4-5.4-5.4c-3 0-5.4 2.4-5.4 5.4z"/></g><g><path class="st1" d="M15.7 131.8c0-3.3 2.7-5.9 5.9-5.9 3.3 0 5.9 2.7 5.9 5.9 0 3.3-2.7 5.9-5.9 5.9s-5.9-2.6-5.9-5.9zm.6 0c0 3 2.4 5.4 5.4 5.4s5.4-2.4 5.4-5.4-2.4-5.4-5.4-5.4-5.4 2.4-5.4 5.4z"/></g></svg>