<?xml version="1.0" encoding="utf-8"?>
<svg width="680px" height="200px" viewBox="0 0 680 200" version="1.1" xmlns:xlink="http://www.w3.org/1999/xlink" xmlns="http://www.w3.org/2000/svg">
  <defs>
    <path d="M0 6.5C0 2.91015 2.91015 0 6.5 0C10.0899 0 13 2.91015 13 6.5C13 10.0899 10.0899 13 6.5 13C2.91015 13 0 10.0899 0 6.5Z" id="path_1" />
    <path d="M0 6.5C0 2.91015 2.91015 0 6.5 0C10.0899 0 13 2.91015 13 6.5C13 10.0899 10.0899 13 6.5 13C2.91015 13 0 10.0899 0 6.5Z" transform="translate(60 0)" id="path_2" />
    <path d="M0 6.5C0 2.91015 2.91015 0 6.5 0C10.0899 0 13 2.91015 13 6.5C13 10.0899 10.0899 13 6.5 13C2.91015 13 0 10.0899 0 6.5Z" transform="translate(120 0)" id="path_3" />
    <path d="M0 6.5C0 2.91015 2.91015 0 6.5 0C10.0899 0 13 2.91015 13 6.5C13 10.0899 10.0899 13 6.5 13C2.91015 13 0 10.0899 0 6.5Z" transform="translate(0 60)" id="path_4" />
    <path d="M0 6.5C0 2.91015 2.91015 0 6.5 0C10.0899 0 13 2.91015 13 6.5C13 10.0899 10.0899 13 6.5 13C2.91015 13 0 10.0899 0 6.5Z" transform="translate(60 60)" id="path_5" />
    <path d="M0 6.5C0 2.91015 2.91015 0 6.5 0C10.0899 0 13 2.91015 13 6.5C13 10.0899 10.0899 13 6.5 13C2.91015 13 0 10.0899 0 6.5Z" transform="translate(120 60)" id="path_6" />
    <path d="M0 6.5C0 2.91015 2.91015 0 6.5 0C10.0899 0 13 2.91015 13 6.5C13 10.0899 10.0899 13 6.5 13C2.91015 13 0 10.0899 0 6.5Z" transform="translate(0 120)" id="path_7" />
    <path d="M0 6.5C0 2.91015 2.91015 0 6.5 0C10.0899 0 13 2.91015 13 6.5C13 10.0899 10.0899 13 6.5 13C2.91015 13 0 10.0899 0 6.5Z" transform="translate(60 120)" id="path_8" />
    <path d="M0 6.5C0 2.91015 2.91015 0 6.5 0C10.0899 0 13 2.91015 13 6.5C13 10.0899 10.0899 13 6.5 13C2.91015 13 0 10.0899 0 6.5Z" transform="translate(120 120)" id="path_9" />
    <path d="M0 6.5C0 2.91015 2.91015 0 6.5 0C10.0899 0 13 2.91015 13 6.5C13 10.0899 10.0899 13 6.5 13C2.91015 13 0 10.0899 0 6.5Z" transform="translate(330 60)" id="path_10" />
    <path d="M0 6.5C0 2.91015 2.91015 0 6.5 0C10.0899 0 13 2.91015 13 6.5C13 10.0899 10.0899 13 6.5 13C2.91015 13 0 10.0899 0 6.5Z" transform="translate(410 60)" id="path_11" />
    <path d="M0 6.5C0 2.91015 2.91015 0 6.5 0C10.0899 0 13 2.91015 13 6.5C13 10.0899 10.0899 13 6.5 13C2.91015 13 0 10.0899 0 6.5Z" transform="translate(370 20)" id="path_12" />
    <path d="M0 6.5C0 2.91015 2.91015 0 6.5 0C10.0899 0 13 2.91015 13 6.5C13 10.0899 10.0899 13 6.5 13C2.91015 13 0 10.0899 0 6.5Z" transform="translate(370 100)" id="path_13" />
    <rect width="680" height="200" id="artboard_1" />
    <clipPath id="clip_1">
      <use xlink:href="#artboard_1" clip-rule="evenodd" />
    </clipPath>
  </defs>
  <g id="Artboard" clip-path="url(#clip_1)">
    <g id="Lines" transform="translate(10 10)">
      <path d="M1 0L1 180" transform="translate(59 0)" id="Line-13" fill="none" fill-rule="evenodd" stroke="#FFFFFF" stroke-width="7" stroke-linecap="round" stroke-linejoin="round" />
      <path d="M1 0L1 180" transform="translate(119 0)" id="Line" fill="none" fill-rule="evenodd" stroke="#FFFFFF" stroke-width="7" stroke-linecap="round" stroke-linejoin="round" />
      <path d="M1 0L1 180" transform="translate(59 0)" id="Line-2" fill="none" fill-rule="evenodd" stroke="#FFFFFF" stroke-width="7" stroke-linecap="round" stroke-linejoin="round" />
      <path d="M0 1L180 1" transform="translate(0 59)" id="Line-3" fill="none" fill-rule="evenodd" stroke="#FFFFFF" stroke-width="7" stroke-linecap="round" stroke-linejoin="round" />
      <path d="M0 1L180 1" transform="translate(0 119)" id="Line-4" fill="none" fill-rule="evenodd" stroke="#FFFFFF" stroke-width="7" stroke-linecap="round" stroke-linejoin="round" />
      <path d="M1 0L1 180" transform="translate(319 0)" id="Line-5" fill="none" fill-rule="evenodd" stroke="#FFFFFF" stroke-width="7" stroke-linecap="round" stroke-linejoin="round" />
      <path d="M1 0L1 180" transform="translate(259 0)" id="Line-6" fill="none" fill-rule="evenodd" stroke="#FFFFFF" stroke-width="7" stroke-linecap="round" stroke-linejoin="round" />
      <path d="M0 1L180 1" transform="translate(200 59)" id="Line-7" fill="none" fill-rule="evenodd" stroke="#FFFFFF" stroke-width="7" stroke-linecap="round" stroke-linejoin="round" />
      <path d="M0 1L180 1" transform="translate(200 119)" id="Line-8" fill="none" fill-rule="evenodd" stroke="#FFFFFF" stroke-width="7" stroke-linecap="round" stroke-linejoin="round" />
      <path d="M0 0L80.0021 80.0021" transform="translate(420 50)" id="Line-9" fill="none" fill-rule="evenodd" stroke="#FFFFFF" stroke-width="7" stroke-linecap="round" stroke-linejoin="round" />
      <path d="M0 0L80.0021 80.0021" transform="matrix(1 0 0 -1 420 130)" id="Line-10" fill="none" fill-rule="evenodd" stroke="#FFFFFF" stroke-width="7" stroke-linecap="round" stroke-linejoin="round" />
      <path d="M0 0L80.0021 80.0021" transform="translate(560 50)" id="Line-11" fill="none" fill-rule="evenodd" stroke="#FFFFFF" stroke-width="7" stroke-linecap="round" stroke-linejoin="round" />
      <path d="M0 0L80.0021 80.0021" transform="matrix(1 0 0 -1 560 130)" id="Line-12" fill="none" fill-rule="evenodd" stroke="#FFFFFF" stroke-width="7" stroke-linecap="round" stroke-linejoin="round" />
    </g>
    <g id="Letters" transform="translate(10 9)">
      <g id="A" fill="#29B6F6" transform="translate(0 2)">
        <path d="M18.9915 48.1818L14.375 48.1818L27.7273 11.8182L32.2727 11.8182L45.625 48.1818L41.0085 48.1818L37.3509 37.8835L22.6491 37.8835L18.9915 48.1818ZM24.0341 33.9773L35.9659 33.9773L30.142 17.571L29.858 17.571L24.0341 33.9773Z" />
      </g>
      <g id="B" fill="#29B6F6" transform="translate(60 1)">
        <path d="M18.1392 48.1818L18.1392 11.8182L30.8523 11.8182Q34.652 11.8182 37.12 13.1232Q39.5881 14.4283 40.7955 16.6211Q42.0028 18.8139 42.0028 21.4773Q42.0028 23.821 41.1772 25.348Q40.3516 26.875 39.011 27.7628Q37.6705 28.6506 36.108 29.0767L36.108 29.4318Q37.777 29.5383 39.4638 30.6037Q41.1506 31.669 42.2869 33.6577Q43.4233 35.6463 43.4233 38.5227Q43.4233 41.2571 42.1804 43.441Q40.9375 45.625 38.2564 46.9034Q35.5753 48.1818 31.2784 48.1818L18.1392 48.1818ZM22.5426 44.2756L31.2784 44.2756Q35.593 44.2756 37.413 42.5977Q39.233 40.9197 39.233 38.5227Q39.233 36.6761 38.2919 35.1048Q37.3509 33.5334 35.6108 32.5835Q33.8707 31.6335 31.4915 31.6335L22.5426 31.6335L22.5426 44.2756ZM22.5426 27.7983L30.7102 27.7983Q33.6932 27.7983 35.7528 26.076Q37.8125 24.3537 37.8125 21.4773Q37.8125 19.0803 36.1435 17.4023Q34.4744 15.7244 30.8523 15.7244L22.5426 15.7244L22.5426 27.7983Z" />
      </g>
      <g id="C" fill="#29B6F6" transform="translate(120 1)">
        <path d="M45.483 23.1818L41.0795 23.1818Q40.5469 20.6605 39.0376 18.9382Q37.5284 17.2159 35.3977 16.3281Q33.267 15.4403 30.8523 15.4403Q27.5497 15.4403 24.8775 17.1094Q22.2053 18.7784 20.6339 22.0277Q19.0625 25.277 19.0625 30Q19.0625 34.723 20.6339 37.9723Q22.2053 41.2216 24.8775 42.8906Q27.5497 44.5597 30.8523 44.5597Q33.267 44.5597 35.3977 43.6719Q37.5284 42.7841 39.0376 41.0618Q40.5469 39.3395 41.0795 36.8182L45.483 36.8182Q44.8082 40.5469 42.7308 43.2013Q40.6534 45.8558 37.5817 47.2674Q34.5099 48.679 30.8523 48.679Q26.2003 48.679 22.5781 46.4062Q18.956 44.1335 16.8786 39.9432Q14.8011 35.7528 14.8011 30Q14.8011 24.2472 16.8786 20.0568Q18.956 15.8665 22.5781 13.5937Q26.2003 11.321 30.8523 11.321Q34.5099 11.321 37.5817 12.7326Q40.6534 14.1442 42.7308 16.7986Q44.8082 19.4531 45.483 23.1818Z" />
      </g>
      <g id="D" fill="#29B6F6" transform="translate(0 62)">
        <path d="M27.6563 48.1818L16.4347 48.1818L16.4347 11.8182L28.1534 11.8182Q33.4446 11.8182 37.2088 13.9933Q40.973 16.1683 42.9794 20.2255Q44.9858 24.2827 44.9858 29.929Q44.9858 35.6108 42.9617 39.7035Q40.9375 43.7962 37.0668 45.989Q33.196 48.1818 27.6563 48.1818ZM20.8381 44.2756L27.3722 44.2756Q34.1371 44.2756 37.4308 40.4315Q40.7244 36.5874 40.7244 29.929Q40.7244 23.3239 37.4929 19.5241Q34.2614 15.7244 27.8693 15.7244L20.8381 15.7244L20.8381 44.2756Z" />
      </g>
      <g id="E" fill="#29B6F6" transform="translate(60 61)">
        <path d="M19.4531 48.1818L19.4531 11.8182L41.3991 11.8182L41.3991 15.7244L23.8565 15.7244L23.8565 28.0114L40.2628 28.0114L40.2628 31.9176L23.8565 31.9176L23.8565 44.2756L41.6832 44.2756L41.6832 48.1818L19.4531 48.1818Z" />
      </g>
      <g id="F" fill="#29B6F6" transform="translate(120 61)">
        <path d="M19.7372 48.1818L19.7372 11.8182L41.5412 11.8182L41.5412 15.7244L24.1406 15.7244L24.1406 28.0114L39.9077 28.0114L39.9077 31.9176L24.1406 31.9176L24.1406 48.1818L19.7372 48.1818Z" />
      </g>
      <g id="G" fill="#29B6F6" transform="translate(0 121)">
        <path d="M40.6889 23.1818Q39.5348 19.5952 36.8981 17.5178Q34.2614 15.4403 30.3196 15.4403Q27.0881 15.4403 24.4425 17.1094Q21.7969 18.7784 20.2344 22.0277Q18.6719 25.277 18.6719 30Q18.6719 34.723 20.2521 37.9723Q21.8324 41.2216 24.5313 42.8906Q27.2301 44.5597 30.6037 44.5597Q33.6754 44.5597 36.0458 43.2546Q38.4162 41.9496 39.7656 39.5614Q41.1151 37.1733 41.1861 33.9062L31.598 33.9062L31.598 30L45.4474 30L45.4474 33.9062Q45.4474 38.3984 43.5387 41.7187Q41.63 45.0391 38.283 46.859Q34.9361 48.679 30.6037 48.679Q25.7741 48.679 22.1254 46.4062Q18.4766 44.1335 16.4435 39.9432Q14.4105 35.7528 14.4105 30Q14.4105 24.2472 16.4435 20.0568Q18.4766 15.8665 22.0721 13.5937Q25.6676 11.321 30.3196 11.321Q34.1548 11.321 37.2798 12.8214Q40.4048 14.3217 42.4822 16.994Q44.5597 19.6662 45.2344 23.1818L40.6889 23.1818Z" />
      </g>
      <g id="H" fill="#29B6F6" transform="translate(60 121)">
        <path d="M15.902 48.1818L15.902 11.8182L20.3054 11.8182L20.3054 28.0114L39.6946 28.0114L39.6946 11.8182L44.098 11.8182L44.098 48.1818L39.6946 48.1818L39.6946 31.9176L20.3054 31.9176L20.3054 48.1818L15.902 48.1818Z" />
      </g>
      <g id="I" fill="#29B6F6" transform="translate(120 121)">
        <path d="M32.2017 11.8182L32.2017 48.1818L27.7983 48.1818L27.7983 11.8182L32.2017 11.8182Z" />
      </g>
      <g id="J" fill="#29B6F6" transform="translate(200 1)">
        <path d="M34.7585 11.8182L39.1619 11.8182L39.1619 37.8125Q39.1619 43.0504 36.3477 45.8647Q33.5334 48.679 28.7926 48.679Q25.8097 48.679 23.4837 47.587Q21.1577 46.495 19.826 44.4709Q18.4943 42.4467 18.4943 39.6591L22.8267 39.6591Q22.8267 41.9673 24.5135 43.37Q26.2003 44.7727 28.7926 44.7727Q31.6513 44.7727 33.2049 42.9883Q34.7585 41.2038 34.7585 37.8125L34.7585 11.8182Z" />
      </g>
      <g id="K" fill="#29B6F6" transform="translate(260 0)">
        <path d="M18.1037 48.1818L18.1037 11.8182L22.5071 11.8182L22.5071 29.858L22.9332 29.858L39.2685 11.8182L45.0213 11.8182L29.7514 28.2244L45.0213 48.1818L39.6946 48.1818L27.0526 31.2784L22.5071 36.392L22.5071 48.1818L18.1037 48.1818Z" />
      </g>
      <g id="L" fill="#29B6F6" transform="translate(320 0)">
        <path d="M20.3409 48.1818L20.3409 11.8182L24.7443 11.8182L24.7443 44.2756L41.6477 44.2756L41.6477 48.1818L20.3409 48.1818Z" />
      </g>
      <g id="M" fill="#29B6F6" transform="translate(200 61)">
        <path d="M12.1733 11.8182L17.429 11.8182L29.7869 42.0028L30.2131 42.0028L42.571 11.8182L47.8267 11.8182L47.8267 48.1818L43.7074 48.1818L43.7074 20.554L43.3523 20.554L31.9886 48.1818L28.0114 48.1818L16.6477 20.554L16.2926 20.554L16.2926 48.1818L12.1733 48.1818L12.1733 11.8182Z" />
      </g>
      <g id="N" fill="#29B6F6" transform="translate(260 60)">
        <path d="M44.4176 11.8182L44.4176 48.1818L40.1563 48.1818L20.3409 19.6307L19.9858 19.6307L19.9858 48.1818L15.5824 48.1818L15.5824 11.8182L19.8438 11.8182L39.7301 40.4403L40.0852 40.4403L40.0852 11.8182L44.4176 11.8182Z" />
      </g>
      <g id="O" fill="#29B6F6" transform="translate(320 60)">
        <path d="M46.0511 30Q46.0511 35.7528 43.9737 39.9432Q41.8963 44.1335 38.2742 46.4062Q34.652 48.679 30 48.679Q25.348 48.679 21.7259 46.4062Q18.1037 44.1335 16.0263 39.9432Q13.9489 35.7528 13.9489 30Q13.9489 24.2472 16.0263 20.0568Q18.1037 15.8665 21.7259 13.5937Q25.348 11.321 30 11.321Q34.652 11.321 38.2742 13.5937Q41.8963 15.8665 43.9737 20.0568Q46.0511 24.2472 46.0511 30ZM41.7898 30Q41.7898 25.277 40.2184 22.0277Q38.647 18.7784 35.9748 17.1094Q33.3026 15.4403 30 15.4403Q26.6974 15.4403 24.0252 17.1094Q21.353 18.7784 19.7816 22.0277Q18.2102 25.277 18.2102 30Q18.2102 34.723 19.7816 37.9723Q21.353 41.2216 24.0252 42.8906Q26.6974 44.5597 30 44.5597Q33.3026 44.5597 35.9748 42.8906Q38.647 41.2216 40.2184 37.9723Q41.7898 34.723 41.7898 30Z" />
      </g>
      <g id="P" fill="#29B6F6" transform="translate(200 121)">
        <path d="M18.5298 48.1818L18.5298 11.8182L30.8168 11.8182Q35.0959 11.8182 37.8214 13.354Q40.5469 14.8899 41.8608 17.5Q43.1747 20.1101 43.1747 23.3239Q43.1747 26.5376 41.8697 29.1655Q40.5646 31.7933 37.848 33.3469Q35.1314 34.9006 30.8878 34.9006L22.9332 34.9006L22.9332 48.1818L18.5298 48.1818ZM22.9332 30.9943L30.7457 30.9943Q35.1314 30.9943 36.9869 28.7926Q38.8423 26.5909 38.8423 23.3239Q38.8423 20.0391 36.978 17.8817Q35.1136 15.7244 30.6747 15.7244L22.9332 15.7244L22.9332 30.9943Z" />
      </g>
      <g id="Q" fill="#29B6F6" transform="translate(260 120)">
        <path d="M46.0511 30Q46.0511 35.1136 44.3821 39.011Q42.7131 42.9084 39.8189 45.2876L44.5597 51.5909L39.7301 51.5909L36.5518 47.3295Q33.5334 48.679 30 48.679Q25.348 48.679 21.7259 46.4062Q18.1037 44.1335 16.0263 39.9432Q13.9489 35.7528 13.9489 30Q13.9489 24.2472 16.0263 20.0568Q18.1037 15.8665 21.7259 13.5937Q25.348 11.321 30 11.321Q34.652 11.321 38.2742 13.5937Q41.8963 15.8665 43.9737 20.0568Q46.0511 24.2472 46.0511 30ZM28.5795 36.8182L33.4091 36.8182L37.2798 41.9141Q39.3572 40.103 40.5735 37.1111Q41.7898 34.1193 41.7898 30Q41.7898 25.277 40.2184 22.0277Q38.647 18.7784 35.9748 17.1094Q33.3026 15.4403 30 15.4403Q26.6974 15.4403 24.0252 17.1094Q21.353 18.7784 19.7816 22.0277Q18.2102 25.277 18.2102 30Q18.2102 34.723 19.7816 37.9723Q21.353 41.2216 24.0252 42.8906Q26.6974 44.5597 30 44.5597Q32.1129 44.5597 33.9773 43.8849L28.5795 36.8182Z" />
      </g>
      <g id="R" fill="#29B6F6" transform="translate(320 120)">
        <path d="M18.4233 48.1818L18.4233 11.8182L30.7102 11.8182Q34.9716 11.8182 37.706 13.2653Q40.4403 14.7124 41.7543 17.2337Q43.0682 19.755 43.0682 22.9687Q43.0682 26.5909 41.408 29.2809Q39.7479 31.9709 36.2678 33.1605L44.4886 48.1818L39.375 48.1818L31.7045 33.9595Q31.2607 33.9773 30.7813 33.9773L22.8267 33.9773L22.8267 48.1818L18.4233 48.1818ZM22.8267 30L30.6392 30Q35.0071 30 36.8714 28.1179Q38.7358 26.2358 38.7358 22.9687Q38.7358 19.6839 36.8626 17.7042Q34.9893 15.7244 30.5682 15.7244L22.8267 15.7244L22.8267 30Z" />
      </g>
      <g id="S" fill="#29B6F6" transform="translate(430 15)">
        <path d="M38.3452 20.9091Q38.0256 18.2102 35.7528 16.7187Q33.4801 15.2273 30.1776 15.2273Q26.5554 15.2273 24.3537 16.9407Q22.152 18.6541 22.152 21.2642Q22.152 23.2173 23.3505 24.4158Q24.549 25.6143 26.1914 26.2802Q27.8338 26.946 29.1832 27.3011L32.8764 28.2955Q34.2969 28.6683 36.0458 29.3253Q37.7947 29.9822 39.4016 31.1097Q41.0085 32.2372 42.0561 33.995Q43.1037 35.7528 43.1037 38.3097Q43.1037 41.2571 41.5678 43.6364Q40.032 46.0156 37.0934 47.4183Q34.1548 48.821 29.9645 48.821Q24.1051 48.821 20.6605 46.0511Q17.2159 43.2813 16.8963 38.8068L21.4418 38.8068Q21.6193 40.8665 22.8356 42.207Q24.0518 43.5476 25.9251 44.1957Q27.7983 44.8438 29.9645 44.8437Q32.4858 44.8438 34.4922 44.0181Q36.4986 43.1925 37.6705 41.7099Q38.8423 40.2273 38.8423 38.2386Q38.8423 36.4276 37.8303 35.2912Q36.8182 34.1548 35.1669 33.4446Q33.5156 32.7344 31.598 32.2017L27.1236 30.9233Q22.8622 29.6982 20.3764 27.4254Q17.8906 25.1527 17.8906 21.4773Q17.8906 18.4233 19.5508 16.1417Q21.2109 13.8601 24.0252 12.5905Q26.8395 11.321 30.3196 11.321Q33.8352 11.321 36.5696 12.5728Q39.304 13.8246 40.9109 15.9908Q42.5178 18.157 42.6065 20.9091L38.3452 20.9091Z" />
      </g>
      <g id="T" fill="#29B6F6" transform="translate(385 61)">
        <path d="M16.3636 15.7244L16.3636 11.8182L43.6364 11.8182L43.6364 15.7244L32.2017 15.7244L32.2017 48.1818L27.7983 48.1818L27.7983 15.7244L16.3636 15.7244Z" />
      </g>
      <g id="U" fill="#29B6F6" transform="translate(475 61)">
        <path d="M39.7301 11.8182L44.1335 11.8182L44.1335 35.8949Q44.1335 39.6236 42.3846 42.5444Q40.6357 45.4652 37.4574 47.1431Q34.2791 48.821 30 48.821Q25.7209 48.821 22.5426 47.1431Q19.3643 45.4652 17.6154 42.5444Q15.8665 39.6236 15.8665 35.8949L15.8665 11.8182L20.2699 11.8182L20.2699 35.5398Q20.2699 39.5348 22.8622 42.1183Q25.4545 44.7017 30 44.7017Q34.5632 44.7017 37.1467 42.1183Q39.7301 39.5348 39.7301 35.5398L39.7301 11.8182Z" />
      </g>
      <g id="V" fill="#29B6F6" transform="translate(430 105)">
        <path d="M18.9915 11.8182L29.7869 42.429L30.2131 42.429L41.0085 11.8182L45.625 11.8182L32.2727 48.1818L27.7273 48.1818L14.375 11.8182L18.9915 11.8182Z" />
      </g>
      <g id="W" fill="#29B6F6" transform="translate(570 15)">
        <path d="M17.2869 48.1818L7.34375 11.8182L11.8182 11.8182L19.4176 41.4347L19.7727 41.4347L27.5142 11.8182L32.4858 11.8182L40.2273 41.4347L40.5824 41.4347L48.1818 11.8182L52.6563 11.8182L42.7131 48.1818L38.1676 48.1818L30.142 19.2045L29.858 19.2045L21.8324 48.1818L17.2869 48.1818Z" />
      </g>
      <g id="X" fill="#29B6F6" transform="translate(525 61)">
        <path d="M20.483 11.8182L29.858 26.946L30.142 26.946L39.517 11.8182L44.7017 11.8182L33.267 30L44.7017 48.1818L39.517 48.1818L30.142 33.3381L29.858 33.3381L20.483 48.1818L15.2983 48.1818L27.017 30L15.2983 11.8182L20.483 11.8182Z" />
      </g>
      <g id="Y" fill="#29B6F6" transform="translate(615 61)">
        <path d="M14.6591 11.8182L19.7017 11.8182L29.7869 28.7926L30.2131 28.7926L40.2983 11.8182L45.3409 11.8182L32.2017 33.196L32.2017 48.1818L27.7983 48.1818L27.7983 33.196L14.6591 11.8182Z" />
      </g>
      <g id="Z" fill="#29B6F6" transform="translate(570 105)">
        <path d="M17.571 48.1818L17.571 44.9858L37.1733 15.7244L17.358 15.7244L17.358 11.8182L42.429 11.8182L42.429 15.0142L22.8267 44.2756L42.642 44.2756L42.642 48.1818L17.571 48.1818Z" />
      </g>
    </g>
    <g id="Dots" transform="translate(234 33)">
      <g id="Ellipse">
        <use xlink:href="#path_1" fill="none" stroke="#000000" stroke-width="4" />
        <use stroke="none" fill="#FFFFFF" xlink:href="#path_1" fill-rule="evenodd" />
      </g>
      <g id="Ellipse-2">
        <use xlink:href="#path_2" fill="none" stroke="#000000" stroke-width="4" />
        <use stroke="none" fill="#FFFFFF" xlink:href="#path_2" fill-rule="evenodd" />
      </g>
      <g id="Ellipse-3">
        <use xlink:href="#path_3" fill="none" stroke="#000000" stroke-width="4" />
        <use stroke="none" fill="#FFFFFF" xlink:href="#path_3" fill-rule="evenodd" />
      </g>
      <g id="Ellipse-4">
        <use xlink:href="#path_4" fill="none" stroke="#000000" stroke-width="4" />
        <use stroke="none" fill="#FFFFFF" xlink:href="#path_4" fill-rule="evenodd" />
      </g>
      <g id="Ellipse-5">
        <use xlink:href="#path_5" fill="none" stroke="#000000" stroke-width="4" />
        <use stroke="none" fill="#FFFFFF" xlink:href="#path_5" fill-rule="evenodd" />
      </g>
      <g id="Ellipse-6">
        <use xlink:href="#path_6" fill="none" stroke="#000000" stroke-width="4" />
        <use stroke="none" fill="#FFFFFF" xlink:href="#path_6" fill-rule="evenodd" />
      </g>
      <g id="Ellipse-7">
        <use xlink:href="#path_7" fill="none" stroke="#000000" stroke-width="4" />
        <use stroke="none" fill="#FFFFFF" xlink:href="#path_7" fill-rule="evenodd" />
      </g>
      <g id="Ellipse-8">
        <use xlink:href="#path_8" fill="none" stroke="#000000" stroke-width="4" />
        <use stroke="none" fill="#FFFFFF" xlink:href="#path_8" fill-rule="evenodd" />
      </g>
      <g id="Ellipse-9">
        <use xlink:href="#path_9" fill="none" stroke="#000000" stroke-width="4" />
        <use stroke="none" fill="#FFFFFF" xlink:href="#path_9" fill-rule="evenodd" />
      </g>
      <g id="Ellipse-10">
        <use xlink:href="#path_10" fill="none" stroke="#000000" stroke-width="4" />
        <use stroke="none" fill="#FFFFFF" xlink:href="#path_10" fill-rule="evenodd" />
      </g>
      <g id="Ellipse-11">
        <use xlink:href="#path_11" fill="none" stroke="#000000" stroke-width="4" />
        <use stroke="none" fill="#FFFFFF" xlink:href="#path_11" fill-rule="evenodd" />
      </g>
      <g id="Ellipse-12">
        <use xlink:href="#path_12" fill="none" stroke="#000000" stroke-width="4" />
        <use stroke="none" fill="#FFFFFF" xlink:href="#path_12" fill-rule="evenodd" />
      </g>
      <g id="Ellipse-13">
        <use xlink:href="#path_13" fill="none" stroke="#000000" stroke-width="4" />
        <use stroke="none" fill="#FFFFFF" xlink:href="#path_13" fill-rule="evenodd" />
      </g>
    </g>
  </g>
</svg>